WorkSans-Regular.ufo
<glyph name="exclam" format="2">
  <advance width="272"/>
  <unicode hex="0021"/>
  <outline>
    <contour>
      <point x="94" y="660" type="line"/>
      <point x="94" y="374" type="line"/>
      <point x="106" y="208" type="line"/>
      <point x="166" y="208" type="line"/>
      <point x="178" y="374" type="line"/>
      <point x="178" y="660" type="line"/>
    </contour>
    <contour>
      <point x="97" y="120"/>
      <point x="71" y="94"/>
      <point x="71" y="55" type="curve" smooth="yes"/>
      <point x="71" y="16"/>
      <point x="97" y="-10"/>
      <point x="136" y="-10" type="curve" smooth="yes"/>
      <point x="175" y="-10"/>
      <point x="201" y="16"/>
      <point x="201" y="55" type="curve" smooth="yes"/>
      <point x="201" y="94"/>
      <point x="175" y="120"/>
      <point x="136" y="120" type="curve" smooth="yes"/>
    </contour>
  </outline>
</glyph>
<glyph name="parenleft" format="2">
  <advance width="350"/>
  <unicode hex="0028"/>
  <outline>
    <contour>
      <point x="134" y="629"/>
      <point x="61" y="469"/>
      <point x="61" y="281" type="curve"/>
      <point x="61" y="93"/>
      <point x="134" y="-67"/>
      <point x="275" y="-189" type="curve"/>
      <point x="321" y="-143" type="line"/>
      <point x="189" y="-22"/>
      <point x="143" y="98"/>
      <point x="143" y="281" type="curve"/>
      <point x="143" y="464"/>
      <point x="189" y="584"/>
      <point x="321" y="705" type="curve"/>
      <point x="275" y="751" type="line"/>
    </contour>
  </outline>
</glyph>
<glyph name="asterisk" format="2">
  <advance width="572"/>
  <unicode hex="002A"/>
  <outline>
    <contour>
      <point x="286" y="495" type="line"/>
      <point x="271" y="484" type="line"/>
      <point x="326" y="383" type="line"/>
      <point x="398" y="286" type="line"/>
      <point x="450" y="324" type="line"/>
      <point x="380" y="422" type="line"/>
      <point x="301" y="506" type="line"/>
    </contour>
    <contour>
      <point x="192" y="422" type="line"/>
      <point x="122" y="324" type="line"/>
      <point x="174" y="286" type="line"/>
      <point x="246" y="383" type="line"/>
      <point x="301" y="484" type="line"/>
      <point x="286" y="495" type="line"/>
      <point x="271" y="506" type="line"/>
    </contour>
    <contour>
      <point x="53" y="537" type="line"/>
      <point x="167" y="499" type="line"/>
      <point x="280" y="477" type="line"/>
      <point x="286" y="495" type="line"/>
      <point x="292" y="513" type="line"/>
      <point x="188" y="562" type="line"/>
      <point x="72" y="598" type="line"/>
    </contour>
    <contour>
      <point x="253" y="730" type="line"/>
      <point x="253" y="609" type="line"/>
      <point x="267" y="495" type="line"/>
      <point x="286" y="495" type="line"/>
      <point x="305" y="495" type="line"/>
      <point x="319" y="609" type="line"/>
      <point x="319" y="730" type="line"/>
    </contour>
    <contour>
      <point x="384" y="562" type="line"/>
      <point x="280" y="513" type="line"/>
      <point x="286" y="495" type="line"/>
      <point x="292" y="477" type="line"/>
      <point x="405" y="499" type="line"/>
      <point x="519" y="537" type="line"/>
      <point x="500" y="598" type="line"/>
    </contour>
  </outline>
</glyph>
<glyph name="comma" format="2">
  <advance width="266"/>
  <unicode hex="002C"/>
  <outline>
    <contour>
      <point x="97" y="120"/>
      <point x="68" y="89"/>
      <point x="68" y="53" type="curve" smooth="yes"/>
      <point x="68" y="10"/>
      <point x="99" y="-10"/>
      <point x="123" y="-10" type="curve" smooth="yes"/>
      <point x="139" y="-10"/>
      <point x="146" y="-7"/>
      <point x="151" y="-3" type="curve"/>
      <point x="155" y="-5" type="line"/>
      <point x="146" y="-47"/>
      <point x="111" y="-89"/>
      <point x="57" y="-107" type="curve"/>
      <point x="99" y="-146" type="line"/>
      <point x="175" y="-110"/>
      <point x="208" y="-44"/>
      <point x="208" y="23" type="curve" smooth="yes"/>
      <point x="208" y="80"/>
      <point x="180" y="120"/>
      <point x="133" y="120" type="curve" smooth="yes"/>
    </contour>
  </outline>
</glyph>
<glyph name="five" format="2">
  <advance width="582"/>
  <unicode hex="0035"/>
  <outline>
    <contour>
      <point x="241" y="423"/>
      <point x="192" y="401"/>
      <point x="160" y="368" type="curve"/>
      <point x="159" y="368" type="line"/>
      <point x="160" y="377" type="line"/>
      <point x="186" y="585" type="line"/>
      <point x="489" y="585" type="line"/>
      <point x="489" y="660" type="line"/>
      <point x="118" y="660" type="line"/>
      <point x="78" y="284" type="line"/>
      <point x="149" y="284" type="line"/>
      <point x="180" y="329"/>
      <point x="232" y="348"/>
      <point x="296" y="348" type="curve" smooth="yes"/>
      <point x="385" y="348"/>
      <point x="435" y="299"/>
      <point x="436" y="206" type="curve" smooth="yes"/>
      <point x="437" y="118"/>
      <point x="381" y="65"/>
      <point x="290" y="65" type="curve" smooth="yes"/>
      <point x="198" y="65"/>
      <point x="162" y="112"/>
      <point x="141" y="182" type="curve"/>
      <point x="63" y="141" type="line"/>
      <point x="101" y="46"/>
      <point x="170" y="-10"/>
      <point x="293" y="-10" type="curve" smooth="yes"/>
      <point x="434" y="-10"/>
      <point x="519" y="73"/>
      <point x="519" y="210" type="curve" smooth="yes"/>
      <point x="519" y="338"/>
      <point x="437" y="423"/>
      <point x="311" y="423" type="curve" smooth="yes"/>
    </contour>
  </outline>
</glyph>
<glyph name="nine" format="2">
  <advance width="623"/>
  <unicode hex="0039"/>
  <outline>
    <contour>
      <point x="158" y="670"/>
      <point x="70" y="587"/>
      <point x="70" y="456" type="curve" smooth="yes"/>
      <point x="70" y="325"/>
      <point x="158" y="242"/>
      <point x="291" y="242" type="curve" smooth="yes"/>
      <point x="365" y="242"/>
      <point x="454" y="270"/>
      <point x="475" y="366" type="curve"/>
      <point x="479" y="366" type="line"/>
      <point x="479" y="363"/>
      <point x="479" y="360"/>
      <point x="479" y="357" type="curve" smooth="yes"/>
      <point x="479" y="180"/>
      <point x="435" y="65"/>
      <point x="297" y="65" type="curve" smooth="yes"/>
      <point x="199" y="65"/>
      <point x="169" y="112"/>
      <point x="148" y="181" type="curve"/>
      <point x="69" y="139" type="line"/>
      <point x="107" y="42"/>
      <point x="176" y="-10"/>
      <point x="298" y="-10" type="curve" smooth="yes"/>
      <point x="464" y="-10"/>
      <point x="552" y="109"/>
      <point x="552" y="330" type="curve" smooth="yes"/>
      <point x="552" y="530"/>
      <point x="463" y="670"/>
      <point x="297" y="670" type="curve" smooth="yes"/>
    </contour>
    <contour>
      <point x="384" y="593"/>
      <point x="442" y="538"/>
      <point x="442" y="455" type="curve" smooth="yes"/>
      <point x="442" y="375"/>
      <point x="384" y="319"/>
      <point x="298" y="319" type="curve" smooth="yes"/>
      <point x="207" y="319"/>
      <point x="154" y="371"/>
      <point x="154" y="455" type="curve" smooth="yes"/>
      <point x="154" y="542"/>
      <point x="207" y="593"/>
      <point x="298" y="593" type="curve" smooth="yes"/>
    </contour>
  </outline>
</glyph>
<glyph name="question" format="2">
  <advance width="542"/>
  <unicode hex="003F"/>
  <outline>
    <contour>
      <point x="147" y="670"/>
      <point x="61" y="602"/>
      <point x="39" y="500" type="curve"/>
      <point x="110" y="459" type="line"/>
      <point x="120" y="543"/>
      <point x="179" y="595"/>
      <point x="267" y="595" type="curve" smooth="yes"/>
      <point x="362" y="595"/>
      <point x="408" y="553"/>
      <point x="408" y="490" type="curve" smooth="yes"/>
      <point x="408" y="414"/>
      <point x="354" y="378"/>
      <point x="221" y="358" type="curve"/>
      <point x="221" y="208" type="line"/>
      <point x="304" y="208" type="line"/>
      <point x="304" y="315" type="line"/>
      <point x="408" y="326"/>
      <point x="492" y="383"/>
      <point x="492" y="500" type="curve" smooth="yes"/>
      <point x="492" y="605"/>
      <point x="401" y="670"/>
      <point x="273" y="670" type="curve" smooth="yes"/>
    </contour>
    <component base="period" xOffset="128"/>
  </outline>
</glyph>
<glyph name="C" format="2">
  <advance width="686"/>
  <unicode hex="0043"/>
  <anchor x="372" y="0" name="bottom"/>
  <anchor x="373" y="0" name="bottomC"/>
  <anchor x="454" y="0" name="ogonek"/>
  <anchor x="372" y="660" name="top"/>
  <outline>
    <contour>
      <point x="560" y="199" type="line"/>
      <point x="531" y="110"/>
      <point x="462" y="65"/>
      <point x="374" y="65" type="curve" smooth="yes"/>
      <point x="237" y="65"/>
      <point x="152" y="164"/>
      <point x="152" y="330" type="curve" smooth="yes"/>
      <point x="152" y="497"/>
      <point x="243" y="595"/>
      <point x="378" y="595" type="curve" smooth="yes"/>
      <point x="466" y="595"/>
      <point x="520" y="555"/>
      <point x="549" y="479" type="curve"/>
      <point x="628" y="516" type="line"/>
      <point x="586" y="616"/>
      <point x="500" y="670"/>
      <point x="372" y="670" type="curve" smooth="yes"/>
      <point x="188" y="670"/>
      <point x="68" y="539"/>
      <point x="68" y="330" type="curve" smooth="yes"/>
      <point x="68" y="121"/>
      <point x="186" y="-10"/>
      <point x="374" y="-10" type="curve" smooth="yes"/>
      <point x="498" y="-10"/>
      <point x="598" y="56"/>
      <point x="640" y="169" type="curve"/>
    </contour>
  </outline>
</glyph>
<glyph name="D" format="2">
  <advance width="721"/>
  <unicode hex="0044"/>
  <anchor x="325" y="0" name="bottom"/>
  <anchor x="310" y="0" name="bottomC"/>
  <anchor x="366" y="330" name="center"/>
  <anchor x="321" y="0" name="ogonek"/>
  <anchor x="325" y="660" name="top"/>
  <outline>
    <contour>
      <point x="148" y="660" type="line"/>
      <point x="148" y="585" type="line"/>
      <point x="329" y="585" type="line" smooth="yes"/>
      <point x="480" y="585"/>
      <point x="569" y="490"/>
      <point x="569" y="330" type="curve" smooth="yes"/>
      <point x="569" y="170"/>
      <point x="480" y="75"/>
      <point x="329" y="75" type="curve" smooth="yes"/>
      <point x="148" y="75" type="line"/>
      <point x="148" y="0" type="line"/>
      <point x="321" y="0" type="line" smooth="yes"/>
      <point x="528" y="0"/>
      <point x="653" y="118"/>
      <point x="653" y="330" type="curve" smooth="yes"/>
      <point x="653" y="542"/>
      <point x="528" y="660"/>
      <point x="321" y="660" type="curve" smooth="yes"/>
    </contour>
    <contour>
      <point x="108" y="660" type="line"/>
      <point x="108" y="0" type="line"/>
      <point x="188" y="0" type="line"/>
      <point x="188" y="660" type="line"/>
    </contour>
  </outline>
</glyph>
<glyph name="G" format="2">
  <advance width="724"/>
  <unicode hex="0047"/>
  <anchor x="405" y="0" name="bottom"/>
  <anchor x="373" y="0" name="bottomC"/>
  <anchor x="454" y="0" name="ogonek"/>
  <anchor x="373" y="660" name="top"/>
  <outline>
    <contour>
      <point x="535" y="-10"/>
      <point x="616" y="85"/>
      <point x="616" y="224" type="curve"/>
      <point x="572" y="235" type="line"/>
      <point x="572" y="121"/>
      <point x="487" y="65"/>
      <point x="377" y="65" type="curve" smooth="yes"/>
      <point x="230" y="65"/>
      <point x="152" y="164"/>
      <point x="152" y="330" type="curve" smooth="yes"/>
      <point x="152" y="496"/>
      <point x="242" y="595"/>
      <point x="376" y="595" type="curve" smooth="yes"/>
      <point x="468" y="595"/>
      <point x="538" y="555"/>
      <point x="567" y="479" type="curve"/>
      <point x="640" y="519" type="line"/>
      <point x="589" y="621"/>
      <point x="507" y="670"/>
      <point x="376" y="670" type="curve" smooth="yes"/>
      <point x="191" y="670"/>
      <point x="68" y="539"/>
      <point x="68" y="330" type="curve" smooth="yes"/>
      <point x="68" y="121"/>
      <point x="186" y="-10"/>
      <point x="374" y="-10" type="curve" smooth="yes"/>
    </contour>
    <contour>
      <point x="645" y="0" type="line"/>
      <point x="645" y="333" type="line"/>
      <point x="362" y="333" type="line"/>
      <point x="362" y="258" type="line"/>
      <point x="572" y="258" type="line"/>
      <point x="572" y="166" type="line"/>
      <point x="580" y="143" type="line"/>
      <point x="585" y="0" type="line"/>
    </contour>
  </outline>
</glyph>
<glyph name="I" format="2">
  <advance width="296"/>
  <unicode hex="0049"/>
  <anchor x="148" y="0" name="bottom"/>
  <anchor x="148" y="0" name="bottomC"/>
  <anchor x="188" y="0" name="ogonek"/>
  <anchor x="148" y="660" name="top"/>
  <outline>
    <contour>
      <point x="108" y="660" type="line"/>
      <point x="108" y="0" type="line"/>
      <point x="188" y="0" type="line"/>
      <point x="188" y="660" type="line"/>
    </contour>
  </outline>
</glyph>
<glyph name="U" format="2">
  <advance width="720"/>
  <unicode hex="0055"/>
  <anchor x="360" y="0" name="bottom"/>
  <anchor x="360" y="0" name="bottomC"/>
  <anchor x="480" y="16" name="ogonek"/>
  <anchor x="360" y="660" name="top"/>
  <outline>
    <contour>
      <point x="539" y="660" type="line"/>
      <point x="539" y="266" type="line" smooth="yes"/>
      <point x="539" y="128"/>
      <point x="483" y="65"/>
      <point x="360" y="65" type="curve" smooth="yes"/>
      <point x="237" y="65"/>
      <point x="181" y="128"/>
      <point x="181" y="266" type="curve" smooth="yes"/>
      <point x="181" y="660" type="line"/>
      <point x="101" y="660" type="line"/>
      <point x="101" y="246" type="line" smooth="yes"/>
      <point x="101" y="76"/>
      <point x="194" y="-10"/>
      <point x="360" y="-10" type="curve" smooth="yes"/>
      <point x="527" y="-10"/>
      <point x="619" y="76"/>
      <point x="619" y="246" type="curve" smooth="yes"/>
      <point x="619" y="660" type="line"/>
    </contour>
  </outline>
</glyph>
<glyph name="b" format="2">
  <advance width="630"/>
  <unicode hex="0062"/>
  <anchor x="322" y="0" name="bottom"/>
  <anchor x="322" y="0" name="bottomC"/>
  <anchor x="445" y="17" name="ogonek"/>
  <anchor x="133" y="730" name="top"/>
  <outline>
    <contour>
      <point x="93" y="730" type="line"/>
      <point x="93" y="117" type="line"/>
      <point x="93" y="0" type="line"/>
      <point x="163" y="0" type="line"/>
      <point x="170" y="118" type="line"/>
      <point x="173" y="166" type="line"/>
      <point x="173" y="730" type="line"/>
    </contour>
    <component base="bowl" xScale="-1" xOffset="647"/>
  </outline>
</glyph>
<glyph name="e" format="2">
  <advance width="581"/>
  <unicode hex="0065"/>
  <anchor x="295" y="0" name="bottom"/>
  <anchor x="295" y="0" name="bottomC"/>
  <anchor x="379" y="40" name="ogonek"/>
  <anchor x="295" y="500" name="top"/>
  <outline>
    <contour>
      <point x="412" y="-10"/>
      <point x="474" y="31"/>
      <point x="512" y="99" type="curve"/>
      <point x="445" y="134" type="line"/>
      <point x="427" y="86"/>
      <point x="377" y="60"/>
      <point x="304" y="60" type="curve" smooth="yes"/>
      <point x="203" y="60"/>
      <point x="140" y="131"/>
      <point x="140" y="250" type="curve" smooth="yes"/>
      <point x="140" y="369"/>
      <point x="197" y="440"/>
      <point x="298" y="440" type="curve" smooth="yes"/>
      <point x="392" y="440"/>
      <point x="445" y="370"/>
      <point x="447" y="260" type="curve"/>
      <point x="483" y="291" type="line"/>
      <point x="114" y="291" type="line"/>
      <point x="114" y="220" type="line"/>
      <point x="518" y="220" type="line"/>
      <point x="520" y="234"/>
      <point x="522" y="253"/>
      <point x="522" y="276" type="curve" smooth="yes"/>
      <point x="522" y="405"/>
      <point x="443" y="510"/>
      <point x="298" y="510" type="curve" smooth="yes"/>
      <point x="147" y="510"/>
      <point x="62" y="412"/>
      <point x="62" y="250" type="curve" smooth="yes"/>
      <point x="62" y="88"/>
      <point x="153" y="-10"/>
      <point x="304" y="-10" type="curve" smooth="yes"/>
    </contour>
  </outline>
</glyph>
<glyph name="f" format="2">
  <advance width="393"/>
  <unicode hex="0066"/>
  <anchor x="172" y="0" name="bottom"/>
  <anchor x="172" y="0" name="bottomC"/>
  <anchor x="212" y="0" name="ogonek"/>
  <anchor x="257" y="730" name="top"/>
  <outline>
    <contour>
      <point x="186" y="735"/>
      <point x="132" y="673"/>
      <point x="132" y="584" type="curve" smooth="yes"/>
      <point x="132" y="0" type="line"/>
      <point x="212" y="0" type="line"/>
      <point x="212" y="474" type="line"/>
      <point x="212" y="500" type="line"/>
      <point x="212" y="576" type="line" smooth="yes"/>
      <point x="212" y="636"/>
      <point x="245" y="662"/>
      <point x="303" y="662" type="curve" smooth="yes"/>
      <point x="326" y="662"/>
      <point x="344" y="657"/>
      <point x="360" y="647" type="curve"/>
      <point x="381" y="712" type="line"/>
      <point x="363" y="727"/>
      <point x="331" y="735"/>
      <point x="296" y="735" type="curve" smooth="yes"/>
    </contour>
    <contour>
      <point x="32" y="500" type="line"/>
      <point x="32" y="431" type="line"/>
      <point x="379" y="431" type="line"/>
      <point x="379" y="500" type="line"/>
    </contour>
  </outline>
</glyph>
<glyph name="g" format="2">
  <advance width="532"/>
  <unicode hex="0067"/>
  <anchor x="267" y="-210" name="bottom"/>
  <anchor x="267" y="-210" name="bottomC"/>
  <anchor x="401" y="-193" name="ogonek"/>
  <anchor x="267" y="500" name="top"/>
  <outline>
    <contour>
      <point x="435" y="592"/>
      <point x="372" y="542"/>
      <point x="374" y="460" type="curve"/>
      <point x="424" y="439" type="line"/>
      <point x="422" y="497"/>
      <point x="462" y="522"/>
      <point x="532" y="522" type="curve"/>
      <point x="514" y="592" type="line"/>
    </contour>
    <component base="gbase" xOffset="-10"/>
  </outline>
</glyph>
<glyph name="u" format="2">
  <advance width="619"/>
  <unicode hex="0075"/>
  <anchor x="308" y="0" name="bottom"/>
  <anchor x="514" y="0" name="bottomC"/>
  <anchor x="526" y="0" name="ogonek"/>
  <anchor x="308" y="500" name="top"/>
  <outline>
    <contour>
      <point x="88" y="500" type="line"/>
      <point x="88" y="173" type="line" smooth="yes"/>
      <point x="88" y="41"/>
      <point x="173" y="-10"/>
      <point x="272" y="-10" type="curve" smooth="yes"/>
      <point x="396" y="-10"/>
      <point x="482" y="53"/>
      <point x="482" y="208" type="curve"/>
      <point x="446" y="228" type="line"/>
      <point x="446" y="110"/>
      <point x="371" y="60"/>
      <point x="286" y="60" type="curve" smooth="yes"/>
      <point x="214" y="60"/>
      <point x="168" y="91"/>
      <point x="168" y="194" type="curve" smooth="yes"/>
      <point x="168" y="500" type="line"/>
    </contour>
    <contour>
      <point x="446" y="500" type="line"/>
      <point x="446" y="123" type="line"/>
      <point x="449" y="117" type="line"/>
      <point x="456" y="0" type="line"/>
      <point x="526" y="0" type="line"/>
      <point x="526" y="500" type="line"/>
    </contour>
  </outline>
</glyph>
<glyph name="currency" format="2">
  <advance width="665"/>
  <unicode hex="00A4"/>
  <outline>
    <contour>
      <point x="211" y="539"/>
      <point x="122" y="451"/>
      <point x="122" y="329" type="curve" smooth="yes"/>
      <point x="122" y="207"/>
      <point x="211" y="118"/>
      <point x="333" y="118" type="curve" smooth="yes"/>
      <point x="455" y="118"/>
      <point x="543" y="207"/>
      <point x="543" y="329" type="curve" smooth="yes"/>
      <point x="543" y="451"/>
      <point x="455" y="539"/>
      <point x="333" y="539" type="curve" smooth="yes"/>
    </contour>
    <contour>
      <point x="408" y="467"/>
      <point x="463" y="409"/>
      <point x="463" y="329" type="curve" smooth="yes"/>
      <point x="463" y="248"/>
      <point x="408" y="190"/>
      <point x="333" y="190" type="curve" smooth="yes"/>
      <point x="257" y="190"/>
      <point x="202" y="248"/>
      <point x="202" y="329" type="curve" smooth="yes"/>
      <point x="202" y="409"/>
      <point x="257" y="467"/>
      <point x="333" y="467" type="curve" smooth="yes"/>
    </contour>
    <contour>
      <point x="70" y="540" type="line"/>
      <point x="189" y="424" type="line"/>
      <point x="240" y="474" type="line"/>
      <point x="121" y="591" type="line"/>
    </contour>
    <contour>
      <point x="70" y="117" type="line"/>
      <point x="121" y="66" type="line"/>
      <point x="237" y="185" type="line"/>
      <point x="187" y="236" type="line"/>
    </contour>
    <contour>
      <point x="425" y="182" type="line"/>
      <point x="544" y="66" type="line"/>
      <point x="595" y="117" type="line"/>
      <point x="476" y="233" type="line"/>
    </contour>
    <contour>
      <point x="428" y="472" type="line"/>
      <point x="479" y="421" type="line"/>
      <point x="595" y="540" type="line"/>
      <point x="544" y="591" type="line"/>
    </contour>
  </outline>
</glyph>
<glyph name="section" format="2">
  <advance width="598"/>
  <unicode hex="00A7"/>
  <outline>
    <contour>
      <point x="174" y="670"/>
      <point x="93" y="603"/>
      <point x="93" y="520" type="curve" smooth="yes"/>
      <point x="93" y="421"/>
      <point x="155" y="371"/>
      <point x="328" y="351" type="curve" smooth="yes"/>
      <point x="451" y="337"/>
      <point x="490" y="313"/>
      <point x="490" y="264" type="curve" smooth="yes"/>
      <point x="490" y="200"/>
      <point x="411" y="174"/>
      <point x="362" y="161" type="curve"/>
      <point x="414" y="109" type="line"/>
      <point x="487" y="128"/>
      <point x="570" y="181"/>
      <point x="570" y="271" type="curve" smooth="yes"/>
      <point x="570" y="359"/>
      <point x="512" y="403"/>
      <point x="349" y="424" type="curve" smooth="yes"/>
      <point x="214" y="441"/>
      <point x="173" y="469"/>
      <point x="173" y="527" type="curve" smooth="yes"/>
      <point x="173" y="573"/>
      <point x="221" y="600"/>
      <point x="306" y="600" type="curve" smooth="yes"/>
      <point x="384" y="600"/>
      <point x="427" y="571"/>
      <point x="460" y="521" type="curve"/>
      <point x="516" y="569" type="line"/>
      <point x="478" y="626"/>
      <point x="422" y="670"/>
      <point x="308" y="670" type="curve" smooth="yes"/>
    </contour>
    <contour>
      <point x="428" y="-110"/>
      <point x="509" y="-43"/>
      <point x="509" y="40" type="curve" smooth="yes"/>
      <point x="509" y="139"/>
      <point x="447" y="188"/>
      <point x="274" y="209" type="curve" smooth="yes"/>
      <point x="151" y="224"/>
      <point x="112" y="247"/>
      <point x="112" y="296" type="curve" smooth="yes"/>
      <point x="112" y="360"/>
      <point x="191" y="386"/>
      <point x="240" y="399" type="curve"/>
      <point x="188" y="451" type="line"/>
      <point x="115" y="432"/>
      <point x="32" y="379"/>
      <point x="32" y="289" type="curve" smooth="yes"/>
      <point x="32" y="201"/>
      <point x="90" y="158"/>
      <point x="253" y="136" type="curve" smooth="yes"/>
      <point x="388" y="118"/>
      <point x="429" y="91"/>
      <point x="429" y="33" type="curve" smooth="yes"/>
      <point x="429" y="-13"/>
      <point x="381" y="-40"/>
      <point x="300" y="-40" type="curve" smooth="yes"/>
      <point x="223" y="-40"/>
      <point x="176" y="-15"/>
      <point x="145" y="40" type="curve"/>
      <point x="86" y="-9" type="line"/>
      <point x="130" y="-71"/>
      <point x="195" y="-110"/>
      <point x="301" y="-110" type="curve" smooth="yes"/>
    </contour>
  </outline>
</glyph>
<glyph name="logicalnot" format="2">
  <advance width="604"/>
  <unicode hex="00AC"/>
  <outline>
    <contour>
      <point x="465" y="319" type="line"/>
      <point x="465" y="131" type="line"/>
      <point x="545" y="131" type="line"/>
      <point x="545" y="319" type="line"/>
    </contour>
    <contour>
      <point x="59" y="354" type="line"/>
      <point x="59" y="279" type="line"/>
      <point x="545" y="279" type="line"/>
      <point x="545" y="354" type="line"/>
    </contour>
  </outline>
</glyph>
<glyph name="degree" format="2">
  <advance width="460"/>
  <unicode hex="00B0"/>
  <outline>
    <contour>
      <point x="329" y="340"/>
      <point x="400" y="409"/>
      <point x="400" y="505" type="curve" smooth="yes"/>
      <point x="400" y="601"/>
      <point x="329" y="670"/>
      <point x="230" y="670" type="curve" smooth="yes"/>
      <point x="131" y="670"/>
      <point x="60" y="601"/>
      <point x="60" y="505" type="curve" smooth="yes"/>
      <point x="60" y="409"/>
      <point x="131" y="340"/>
      <point x="230" y="340" type="curve" smooth="yes"/>
    </contour>
    <contour>
      <point x="172" y="405"/>
      <point x="130" y="447"/>
      <point x="130" y="505" type="curve" smooth="yes"/>
      <point x="130" y="563"/>
      <point x="172" y="605"/>
      <point x="230" y="605" type="curve" smooth="yes"/>
      <point x="288" y="605"/>
      <point x="330" y="563"/>
      <point x="330" y="505" type="curve" smooth="yes"/>
      <point x="330" y="447"/>
      <point x="288" y="405"/>
      <point x="230" y="405" type="curve" smooth="yes"/>
    </contour>
  </outline>
</glyph>
<glyph name="twosuperior" format="2">
  <advance width="365"/>
  <unicode hex="00B2"/>
  <anchor x="183" y="517" name="_indexring"/>
  <outline>
    <contour>
      <point x="336" y="333" type="line"/>
      <point x="336" y="390" type="line"/>
      <point x="194" y="390" type="line" smooth="yes"/>
      <point x="180" y="390"/>
      <point x="142" y="388"/>
      <point x="130" y="387" type="curve"/>
      <point x="130" y="388" type="line"/>
      <point x="148" y="400"/>
      <point x="165" y="411"/>
      <point x="182" y="423" type="curve" smooth="yes"/>
      <point x="282" y="492"/>
      <point x="327" y="550"/>
      <point x="327" y="608" type="curve" smooth="yes"/>
      <point x="327" y="674"/>
      <point x="278" y="735"/>
      <point x="180" y="735" type="curve" smooth="yes"/>
      <point x="92" y="735"/>
      <point x="33" y="687"/>
      <point x="28" y="606" type="curve"/>
      <point x="91" y="584" type="line"/>
      <point x="93" y="642"/>
      <point x="125" y="677"/>
      <point x="177" y="677" type="curve" smooth="yes"/>
      <point x="227" y="677"/>
      <point x="254" y="646"/>
      <point x="254" y="604" type="curve" smooth="yes"/>
      <point x="254" y="558"/>
      <point x="227" y="524"/>
      <point x="131" y="448" type="curve" smooth="yes"/>
      <point x="100" y="424"/>
      <point x="70" y="403"/>
      <point x="39" y="381" type="curve"/>
      <point x="39" y="333" type="line"/>
    </contour>
  </outline>
</glyph>
<glyph name="ordmasculine" format="2">
  <advance width="360"/>
  <unicode hex="00BA"/>
  <outline>
    <contour>
      <point x="283" y="327"/>
      <point x="337" y="390"/>
      <point x="337" y="496" type="curve" smooth="yes"/>
      <point x="337" y="602"/>
      <point x="283" y="665"/>
      <point x="180" y="665" type="curve" smooth="yes"/>
      <point x="77" y="665"/>
      <point x="23" y="602"/>
      <point x="23" y="496" type="curve" smooth="yes"/>
      <point x="23" y="390"/>
      <point x="77" y="327"/>
      <point x="180" y="327" type="curve" smooth="yes"/>
    </contour>
    <contour>
      <point x="324" y="201" type="line"/>
      <point x="324" y="254" type="line"/>
      <point x="36" y="254" type="line"/>
      <point x="36" y="201" type="line"/>
    </contour>
    <contour>
      <point x="121" y="382"/>
      <point x="93" y="424"/>
      <point x="93" y="496" type="curve" smooth="yes"/>
      <point x="93" y="568"/>
      <point x="121" y="611"/>
      <point x="180" y="611" type="curve" smooth="yes"/>
      <point x="239" y="611"/>
      <point x="267" y="568"/>
      <point x="267" y="496" type="curve" smooth="yes"/>
      <point x="267" y="424"/>
      <point x="239" y="382"/>
      <point x="180" y="382" type="curve" smooth="yes"/>
    </contour>
  </outline>
</glyph>
<glyph name="AE" format="2">
  <advance width="954"/>
  <unicode hex="00C6"/>
  <anchor x="491" y="0" name="bottom"/>
  <anchor x="521" y="0" name="bottomC"/>
  <anchor x="902" y="0" name="ogonek"/>
  <anchor x="491" y="660" name="top"/>
  <outline>
    <contour>
      <point x="392" y="660" type="line"/>
      <point x="6" y="0" type="line"/>
      <point x="92" y="0" type="line"/>
      <point x="474" y="660" type="line"/>
    </contour>
    <contour>
      <point x="216" y="288" type="line"/>
      <point x="176" y="213" type="line"/>
      <point x="491" y="213" type="line"/>
      <point x="491" y="288" type="line"/>
    </contour>
    <contour>
      <point x="493" y="75" type="line"/>
      <point x="493" y="0" type="line"/>
      <point x="902" y="0" type="line"/>
      <point x="902" y="75" type="line"/>
    </contour>
    <contour>
      <point x="451" y="660" type="line"/>
      <point x="451" y="0" type="line"/>
      <point x="531" y="0" type="line"/>
      <point x="531" y="660" type="line"/>
    </contour>
    <contour>
      <point x="493" y="372" type="line"/>
      <point x="493" y="297" type="line"/>
      <point x="802" y="297" type="line"/>
      <point x="802" y="372" type="line"/>
    </contour>
    <contour>
      <point x="429" y="660" type="line"/>
      <point x="389" y="585" type="line"/>
      <point x="488" y="585" type="line"/>
      <point x="504" y="585" type="line"/>
      <point x="887" y="585" type="line"/>
      <point x="887" y="660" type="line"/>
    </contour>
  </outline>
</glyph>
<glyph name="multiply" format="2">
  <advance width="604"/>
  <unicode hex="00D7"/>
  <outline>
    <contour>
      <point x="81" y="150" type="line"/>
      <point x="469" y="538" type="line"/>
      <point x="522" y="485" type="line"/>
      <point x="134" y="97" type="line"/>
    </contour>
    <contour>
      <point x="81" y="485" type="line"/>
      <point x="134" y="538" type="line"/>
      <point x="522" y="150" type="line"/>
      <point x="469" y="97" type="line"/>
    </contour>
  </outline>
</glyph>
<glyph name="Thorn" format="2">
  <advance width="627"/>
  <unicode hex="00DE"/>
  <anchor x="148" y="0" name="bottom"/>
  <anchor x="148" y="0" name="bottomC"/>
  <anchor x="188" y="0" name="ogonek"/>
  <anchor x="148" y="660" name="top"/>
  <outline>
    <contour>
      <point x="148" y="542" type="line"/>
      <point x="148" y="467" type="line"/>
      <point x="335" y="467" type="line" smooth="yes"/>
      <point x="439" y="467"/>
      <point x="489" y="425"/>
      <point x="489" y="337" type="curve" smooth="yes"/>
      <point x="489" y="249"/>
      <point x="439" y="207"/>
      <point x="335" y="207" type="curve" smooth="yes"/>
      <point x="148" y="207" type="line"/>
      <point x="148" y="132" type="line"/>
      <point x="327" y="132" type="line" smooth="yes"/>
      <point x="491" y="132"/>
      <point x="573" y="206"/>
      <point x="573" y="337" type="curve" smooth="yes"/>
      <point x="573" y="469"/>
      <point x="491" y="542"/>
      <point x="327" y="542" type="curve" smooth="yes"/>
    </contour>
    <contour>
      <point x="108" y="660" type="line"/>
      <point x="108" y="0" type="line"/>
      <point x="188" y="0" type="line"/>
      <point x="188" y="660" type="line"/>
    </contour>
  </outline>
</glyph>
<glyph name="germandbls" format="2">
  <advance width="620"/>
  <unicode hex="00DF"/>
  <anchor x="327" y="0" name="bottom"/>
  <anchor x="333" y="0" name="bottomC"/>
  <anchor x="452" y="17" name="ogonek"/>
  <anchor x="327" y="730" name="top"/>
  <outline>
    <contour>
      <point x="373" y="393" type="line"/>
      <point x="489" y="393"/>
      <point x="534" y="483"/>
      <point x="534" y="549" type="curve" smooth="yes"/>
      <point x="534" y="631"/>
      <point x="480" y="735"/>
      <point x="326" y="735" type="curve" smooth="yes"/>
      <point x="148" y="735"/>
      <point x="93" y="634"/>
      <point x="93" y="497" type="curve" smooth="yes"/>
      <point x="93" y="0" type="line"/>
      <point x="173" y="0" type="line"/>
      <point x="173" y="473" type="line" smooth="yes"/>
      <point x="173" y="596"/>
      <point x="206" y="660"/>
      <point x="318" y="660" type="curve" smooth="yes"/>
      <point x="405" y="660"/>
      <point x="452" y="623"/>
      <point x="452" y="544" type="curve" smooth="yes"/>
      <point x="452" y="474"/>
      <point x="399" y="422"/>
      <point x="309" y="422" type="curve" smooth="yes"/>
      <point x="270" y="422" type="line"/>
      <point x="270" y="347" type="line"/>
      <point x="309" y="347" type="line" smooth="yes"/>
      <point x="421" y="347"/>
      <point x="483" y="299"/>
      <point x="483" y="206" type="curve" smooth="yes"/>
      <point x="483" y="123"/>
      <point x="434" y="63"/>
      <point x="343" y="63" type="curve" smooth="yes"/>
      <point x="305" y="63"/>
      <point x="277" y="72"/>
      <point x="257" y="88" type="curve"/>
      <point x="234" y="23" type="line"/>
      <point x="252" y="6"/>
      <point x="294" y="-10"/>
      <point x="339" y="-10" type="curve" smooth="yes"/>
      <point x="487" y="-10"/>
      <point x="560" y="91"/>
      <point x="560" y="197" type="curve" smooth="yes"/>
      <point x="560" y="286"/>
      <point x="512" y="391"/>
      <point x="373" y="391" type="curve"/>
    </contour>
  </outline>
</glyph>
<glyph name="eth" format="2">
  <advance width="620"/>
  <unicode hex="00F0"/>
  <anchor x="304" y="0" name="bottom"/>
  <anchor x="304" y="0" name="bottomC"/>
  <anchor x="417" y="17" name="ogonek"/>
  <anchor x="304" y="730" name="top"/>
  <outline>
    <contour>
      <point x="205" y="730" type="line"/>
      <point x="401" y="626"/>
      <point x="457" y="519"/>
      <point x="480" y="322" type="curve"/>
      <point x="468" y="238" type="line"/>
      <point x="468" y="144"/>
      <point x="407" y="60"/>
      <point x="302" y="60" type="curve" smooth="yes"/>
      <point x="206" y="60"/>
      <point x="145" y="126"/>
      <point x="145" y="238" type="curve" smooth="yes"/>
      <point x="145" y="348"/>
      <point x="206" y="415"/>
      <point x="307" y="415" type="curve" smooth="yes"/>
      <point x="407" y="415"/>
      <point x="468" y="348"/>
      <point x="468" y="238" type="curve"/>
      <point x="514" y="238" type="line"/>
      <point x="514" y="392"/>
      <point x="446" y="485"/>
      <point x="296" y="485" type="curve" smooth="yes"/>
      <point x="163" y="485"/>
      <point x="62" y="392"/>
      <point x="62" y="238" type="curve" smooth="yes"/>
      <point x="62" y="83"/>
      <point x="153" y="-10"/>
      <point x="298" y="-10" type="curve" smooth="yes"/>
      <point x="467" y="-10"/>
      <point x="546" y="114"/>
      <point x="546" y="288" type="curve" smooth="yes"/>
      <point x="546" y="491"/>
      <point x="472" y="638"/>
      <point x="316" y="730" type="curve"/>
    </contour>
    <contour>
      <point x="188" y="594" type="line"/>
      <point x="198" y="545" type="line"/>
      <point x="419" y="602" type="line"/>
      <point x="388" y="638" type="line"/>
    </contour>
    <contour>
      <point x="388" y="638" type="line"/>
      <point x="419" y="602" type="line"/>
      <point x="545" y="628" type="line"/>
      <point x="531" y="678" type="line"/>
    </contour>
  </outline>
</glyph>
<glyph name="oslash" format="2">
  <advance width="609"/>
  <unicode hex="00F8"/>
  <anchor x="304" y="0" name="bottom"/>
  <anchor x="304" y="0" name="bottomC"/>
  <anchor x="421" y="17" name="ogonek"/>
  <anchor x="304" y="500" name="top"/>
  <outline>
    <contour>
      <point x="153" y="510"/>
      <point x="62" y="412"/>
      <point x="62" y="250" type="curve" smooth="yes"/>
      <point x="62" y="166"/>
      <point x="86" y="100"/>
      <point x="130" y="55" type="curve"/>
      <point x="61" y="-37" type="line"/>
      <point x="128" y="-37" type="line"/>
      <point x="173" y="22" type="line"/>
      <point x="209" y="1"/>
      <point x="253" y="-10"/>
      <point x="304" y="-10" type="curve" smooth="yes"/>
      <point x="455" y="-10"/>
      <point x="546" y="88"/>
      <point x="546" y="250" type="curve" smooth="yes"/>
      <point x="546" y="329"/>
      <point x="525" y="392"/>
      <point x="485" y="437" type="curve"/>
      <point x="551" y="523" type="line"/>
      <point x="484" y="523" type="line"/>
      <point x="445" y="472" type="line"/>
      <point x="407" y="497"/>
      <point x="360" y="510"/>
      <point x="304" y="510" type="curve" smooth="yes"/>
    </contour>
    <contour>
      <point x="155" y="151"/>
      <point x="142" y="195"/>
      <point x="142" y="250" type="curve" smooth="yes"/>
      <point x="142" y="369"/>
      <point x="203" y="441"/>
      <point x="304" y="441" type="curve" smooth="yes"/>
      <point x="342" y="441"/>
      <point x="374" y="431"/>
      <point x="400" y="412" type="curve"/>
      <point x="215" y="167" type="line"/>
      <point x="179" y="118" type="line"/>
      <point x="178" y="118" type="line"/>
    </contour>
    <contour>
      <point x="271" y="59"/>
      <point x="241" y="67"/>
      <point x="218" y="82" type="curve"/>
      <point x="403" y="328" type="line"/>
      <point x="435" y="372" type="line"/>
      <point x="436" y="372" type="line"/>
      <point x="456" y="340"/>
      <point x="466" y="299"/>
      <point x="466" y="250" type="curve" smooth="yes"/>
      <point x="466" y="131"/>
      <point x="405" y="59"/>
      <point x="304" y="59" type="curve" smooth="yes"/>
    </contour>
  </outline>
</glyph>
<glyph name="idotless" format="2">
  <advance width="266"/>
  <unicode hex="0131"/>
  <anchor x="133" y="0" name="bottom"/>
  <anchor x="133" y="0" name="bottomC"/>
  <anchor x="173" y="0" name="ogonek"/>
  <anchor x="133" y="500" name="top"/>
  <outline>
    <contour>
      <point x="93" y="500" type="line"/>
      <point x="93" y="0" type="line"/>
      <point x="173" y="0" type="line"/>
      <point x="173" y="500" type="line"/>
    </contour>
  </outline>
</glyph>
<glyph name="Lslash" format="2">
  <advance width="628"/>
  <unicode hex="0141"/>
  <anchor x="392" y="0" name="bottom"/>
  <anchor x="392" y="0" name="bottomC"/>
  <anchor x="596" y="0" name="ogonek"/>
  <anchor x="178" y="660" name="top"/>
  <anchor x="330" y="700" name="topright"/>
  <anchor x="494" y="342" name="center"/>
  <outline>
    <contour>
      <point x="33" y="279" type="line"/>
      <point x="33" y="196" type="line"/>
      <point x="395" y="398" type="line"/>
      <point x="395" y="481" type="line"/>
    </contour>
    <component base="L" xOffset="30"/>
  </outline>
</glyph>
<glyph name="lslash" format="2">
  <advance width="372"/>
  <unicode hex="0142"/>
  <anchor x="260" y="0" name="bottom"/>
  <anchor x="249" y="0" name="bottomC"/>
  <anchor x="312" y="0" name="ogonek"/>
  <anchor x="175" y="730" name="top"/>
  <anchor x="246" y="730" name="topright"/>
  <anchor x="315" y="355" name="center"/>
  <outline>
    <contour>
      <point x="175" y="398" type="line"/>
      <point x="39" y="312" type="line"/>
      <point x="39" y="229" type="line"/>
      <point x="187" y="323" type="line"/>
      <point x="335" y="417" type="line"/>
      <point x="335" y="500" type="line"/>
    </contour>
    <component base="l" xOffset="46"/>
  </outline>
</glyph>
<glyph name="oe" format="2">
  <advance width="989"/>
  <unicode hex="0153"/>
  <anchor x="508" y="0" name="bottom"/>
  <anchor x="712" y="0" name="bottomC"/>
  <anchor x="829" y="17" name="ogonek"/>
  <anchor x="508" y="500" name="top"/>
  <outline>
    <contour>
      <point x="153" y="510"/>
      <point x="62" y="412"/>
      <point x="62" y="250" type="curve" smooth="yes"/>
      <point x="62" y="88"/>
      <point x="153" y="-10"/>
      <point x="307" y="-10" type="curve" smooth="yes"/>
      <point x="455" y="-10"/>
      <point x="542" y="88"/>
      <point x="542" y="250" type="curve" smooth="yes"/>
      <point x="542" y="412"/>
      <point x="455" y="510"/>
      <point x="307" y="510" type="curve" smooth="yes"/>
    </contour>
    <contour>
      <point x="408" y="440"/>
      <point x="469" y="369"/>
      <point x="469" y="250" type="curve" smooth="yes"/>
      <point x="469" y="131"/>
      <point x="408" y="60"/>
      <point x="307" y="60" type="curve" smooth="yes"/>
      <point x="206" y="60"/>
      <point x="145" y="131"/>
      <point x="145" y="250" type="curve" smooth="yes"/>
      <point x="145" y="369"/>
      <point x="206" y="440"/>
      <point x="307" y="440" type="curve" smooth="yes"/>
    </contour>
    <contour>
      <point x="819" y="-10"/>
      <point x="881" y="31"/>
      <point x="919" y="99" type="curve"/>
      <point x="852" y="134" type="line"/>
      <point x="834" y="86"/>
      <point x="784" y="60"/>
      <point x="711" y="60" type="curve" smooth="yes"/>
      <point x="610" y="60"/>
      <point x="547" y="131"/>
      <point x="547" y="250" type="curve" smooth="yes"/>
      <point x="547" y="369"/>
      <point x="604" y="440"/>
      <point x="705" y="440" type="curve" smooth="yes"/>
      <point x="799" y="440"/>
      <point x="852" y="370"/>
      <point x="854" y="260" type="curve"/>
      <point x="890" y="291" type="line"/>
      <point x="521" y="291" type="line"/>
      <point x="521" y="220" type="line"/>
      <point x="925" y="220" type="line"/>
      <point x="927" y="234"/>
      <point x="929" y="253"/>
      <point x="929" y="276" type="curve" smooth="yes"/>
      <point x="929" y="405"/>
      <point x="850" y="510"/>
      <point x="705" y="510" type="curve" smooth="yes"/>
      <point x="560" y="510"/>
      <point x="479" y="412"/>
      <point x="479" y="250" type="curve" smooth="yes"/>
      <point x="479" y="88"/>
      <point x="566" y="-10"/>
      <point x="711" y="-10" type="curve" smooth="yes"/>
    </contour>
  </outline>
</glyph>
<glyph name="jdotless" format="2">
  <advance width="266"/>
  <unicode hex="0237"/>
  <anchor x="47" y="-210" name="bottom"/>
  <anchor x="47" y="-210" name="bottomC"/>
  <anchor x="79" y="-204" name="ogonek"/>
  <anchor x="133" y="500" name="top"/>
  <outline>
    <contour>
      <point x="93" y="500" type="line"/>
      <point x="93" y="-43" type="line" smooth="yes"/>
      <point x="93" y="-113"/>
      <point x="63" y="-137"/>
      <point x="20" y="-137" type="curve" smooth="yes"/>
      <point x="-15" y="-137"/>
      <point x="-43" y="-123"/>
      <point x="-62" y="-106" type="curve"/>
      <point x="-79" y="-182" type="line"/>
      <point x="-56" y="-201"/>
      <point x="-20" y="-215"/>
      <point x="21" y="-215" type="curve" smooth="yes"/>
      <point x="89" y="-215"/>
      <point x="173" y="-176"/>
      <point x="173" y="-51" type="curve" smooth="yes"/>
      <point x="173" y="500" type="line"/>
    </contour>
  </outline>
</glyph>
<glyph name="ogonek" format="2">
  <advance width="500"/>
  <unicode hex="02DB"/>
  <anchor x="341" y="16" name="_ogonek"/>
  <outline>
    <contour>
      <point x="295" y="41" type="line"/>
      <point x="196" y="-1"/>
      <point x="142" y="-41"/>
      <point x="142" y="-116" type="curve" smooth="yes"/>
      <point x="142" y="-174"/>
      <point x="189" y="-215"/>
      <point x="261" y="-215" type="curve" smooth="yes"/>
      <point x="290" y="-215"/>
      <point x="323" y="-209"/>
      <point x="342" y="-197" type="curve"/>
      <point x="326" y="-146" type="line"/>
      <point x="310" y="-156"/>
      <point x="288" y="-158"/>
      <point x="271" y="-158" type="curve" smooth="yes"/>
      <point x="233" y="-158"/>
      <point x="207" y="-138"/>
      <point x="207" y="-105" type="curve" smooth="yes"/>
      <point x="207" y="-68"/>
      <point x="241" y="-28"/>
      <point x="341" y="16" type="curve"/>
    </contour>
  </outline>
</glyph>
<glyph name="hungarumlaut" format="2">
  <advance width="500"/>
  <unicode hex="02DD"/>
  <anchor x="223" y="500" name="_top"/>
  <outline>
    <contour>
      <point x="334" y="750" type="line"/>
      <point x="258" y="583" type="line"/>
      <point x="323" y="583" type="line"/>
      <point x="421" y="750" type="line"/>
    </contour>
    <contour>
      <point x="158" y="750" type="line"/>
      <point x="82" y="583" type="line"/>
      <point x="147" y="583" type="line"/>
      <point x="245" y="750" type="line"/>
    </contour>
  </outline>
</glyph>
<glyph name="zerosuperior" format="2">
  <advance width="396"/>
  <unicode hex="2070"/>
  <outline>
    <contour>
      <point x="306" y="327"/>
      <point x="362" y="397"/>
      <point x="362" y="531" type="curve" smooth="yes"/>
      <point x="362" y="665"/>
      <point x="306" y="735"/>
      <point x="198" y="735" type="curve" smooth="yes"/>
      <point x="90" y="735"/>
      <point x="34" y="665"/>
      <point x="34" y="531" type="curve" smooth="yes"/>
      <point x="34" y="397"/>
      <point x="90" y="327"/>
      <point x="198" y="327" type="curve" smooth="yes"/>
    </contour>
    <contour>
      <point x="134" y="384"/>
      <point x="104" y="434"/>
      <point x="104" y="531" type="curve" smooth="yes"/>
      <point x="104" y="628"/>
      <point x="134" y="678"/>
      <point x="198" y="678" type="curve" smooth="yes"/>
      <point x="262" y="678"/>
      <point x="292" y="628"/>
      <point x="292" y="531" type="curve" smooth="yes"/>
      <point x="292" y="434"/>
      <point x="262" y="384"/>
      <point x="198" y="384" type="curve" smooth="yes"/>
    </contour>
  </outline>
</glyph>
<glyph name="product" format="2">
  <advance width="700"/>
  <unicode hex="220F"/>
  <outline>
    <contour>
      <point x="529" y="660" type="line"/>
      <point x="529" y="-128" type="line"/>
      <point x="609" y="-128" type="line"/>
      <point x="609" y="660" type="line"/>
    </contour>
    <contour>
      <point x="91" y="660" type="line"/>
      <point x="91" y="-128" type="line"/>
      <point x="171" y="-128" type="line"/>
      <point x="171" y="660" type="line"/>
    </contour>
    <contour>
      <point x="133" y="660" type="line"/>
      <point x="133" y="585" type="line"/>
      <point x="566" y="585" type="line"/>
      <point x="566" y="660" type="line"/>
    </contour>
  </outline>
</glyph>
<glyph name="lessequal" format="2">
  <advance width="604"/>
  <unicode hex="2264"/>
  <outline>
    <contour>
      <point x="69" y="429" type="line"/>
      <point x="69" y="354" type="line"/>
      <point x="550" y="548" type="line"/>
      <point x="550" y="633" type="line"/>
    </contour>
    <contour>
      <point x="69" y="0" type="line"/>
      <point x="550" y="0" type="line"/>
      <point x="550" y="75" type="line"/>
      <point x="69" y="75" type="line"/>
    </contour>
    <contour>
      <point x="69" y="405" type="line"/>
      <point x="69" y="330" type="line"/>
      <point x="550" y="126" type="line"/>
      <point x="550" y="211" type="line"/>
    </contour>
  </outline>
</glyph>
<glyph name="whiteSmallSquare" format="2">
  <advance width="600"/>
  <unicode hex="25AB"/>
  <outline>
    <contour>
      <point x="550" y="0" type="line"/>
      <point x="550" y="500" type="line"/>
      <point x="50" y="500" type="line"/>
      <point x="50" y="0" type="line"/>
    </contour>
    <contour>
      <point x="130" y="431" type="line"/>
      <point x="470" y="431" type="line"/>
      <point x="470" y="69" type="line"/>
      <point x="130" y="69" type="line"/>
    </contour>
  </outline>
</glyph>
<glyph name="curvedStemParagraphSignOrnament" format="2">
  <advance width="657"/>
  <unicode hex="2761"/>
  <outline>
    <contour>
      <point x="315" y="660" type="line" smooth="yes"/>
      <point x="150" y="660"/>
      <point x="41" y="567"/>
      <point x="41" y="425" type="curve" smooth="yes"/>
      <point x="41" y="286"/>
      <point x="140" y="191"/>
      <point x="294" y="191" type="curve" smooth="yes"/>
      <point x="346" y="191" type="line"/>
      <point x="346" y="-17" type="line" smooth="yes"/>
      <point x="346" y="-102"/>
      <point x="318" y="-156"/>
      <point x="237" y="-156" type="curve" smooth="yes"/>
      <point x="169" y="-156"/>
      <point x="116" y="-101"/>
      <point x="140" y="-8" type="curve"/>
      <point x="84" y="-20" type="line"/>
      <point x="47" y="-142"/>
      <point x="145" y="-215"/>
      <point x="262" y="-215" type="curve" smooth="yes"/>
      <point x="503" y="-215"/>
      <point x="566" y="-78"/>
      <point x="566" y="62" type="curve" smooth="yes"/>
      <point x="566" y="660" type="line"/>
    </contour>
    <contour>
      <point x="180" y="258"/>
      <point x="117" y="321"/>
      <point x="117" y="425" type="curve" smooth="yes"/>
      <point x="117" y="527"/>
      <point x="180" y="593"/>
      <point x="294" y="593" type="curve" smooth="yes"/>
      <point x="346" y="593" type="line"/>
      <point x="346" y="258" type="line"/>
      <point x="294" y="258" type="line" smooth="yes"/>
    </contour>
    <contour>
      <point x="496" y="50" type="line" smooth="yes"/>
      <point x="496" y="-40"/>
      <point x="455" y="-121"/>
      <point x="365" y="-156" type="curve"/>
      <point x="362" y="-152" type="line"/>
      <point x="390" y="-134"/>
      <point x="409" y="-82"/>
      <point x="409" y="-44" type="curve" smooth="yes"/>
      <point x="409" y="593" type="line"/>
      <point x="496" y="593" type="line"/>
    </contour>
  </outline>
</glyph>
<glyph name="Aogonek_y" format="2">
  <advance width="1147"/>
  <anchor x="612" y="0" name="bottomC"/>
  <anchor x="330" y="660" name="top"/>
  <anchor x="634" y="0" name="ogonek"/>
  <anchor x="330" y="0" name="bottom"/>
  <outline>
    <contour>
      <point x="1044" y="500" type="line"/>
      <point x="927" y="184" type="line"/>
      <point x="891" y="85" type="line"/>
      <point x="860" y="174" type="line"/>
      <point x="735" y="500" type="line"/>
      <point x="644" y="500" type="line"/>
      <point x="803" y="120" type="line"/>
      <point x="853" y="1" type="line"/>
      <point x="824" y="-70" type="line" smooth="yes"/>
      <point x="799" y="-133"/>
      <point x="767" y="-147"/>
      <point x="735" y="-147" type="curve" smooth="yes"/>
      <point x="718" y="-147"/>
      <point x="701" y="-144"/>
      <point x="685" y="-131" type="curve"/>
      <point x="668" y="-195" type="line"/>
      <point x="689" y="-209"/>
      <point x="707" y="-215"/>
      <point x="741" y="-215" type="curve" smooth="yes"/>
      <point x="803" y="-215"/>
      <point x="855" y="-184"/>
      <point x="883" y="-114" type="curve" smooth="yes"/>
      <point x="1130" y="500" type="line"/>
    </contour>
    <contour>
      <point x="588" y="31" type="line"/>
      <point x="479" y="0"/>
      <point x="435" y="-45"/>
      <point x="435" y="-111" type="curve" smooth="yes"/>
      <point x="435" y="-177"/>
      <point x="475" y="-215"/>
      <point x="547" y="-215" type="curve" smooth="yes"/>
      <point x="576" y="-215"/>
      <point x="605" y="-209"/>
      <point x="624" y="-196" type="curve"/>
      <point x="605" y="-145" type="line"/>
      <point x="589" y="-156"/>
      <point x="570" y="-158"/>
      <point x="553" y="-158" type="curve" smooth="yes"/>
      <point x="519" y="-158"/>
      <point x="500" y="-139"/>
      <point x="500" y="-107" type="curve" smooth="yes"/>
      <point x="500" y="-64"/>
      <point x="532" y="-30"/>
      <point x="634" y="0" type="curve"/>
    </contour>
    <component base="A"/>
  </outline>
</glyph>
<glyph name="E.swsh.001" format="2">
  <advance width="747"/>
  <anchor x="339" y="0" name="bottom"/>
  <anchor x="339" y="0" name="bottomC"/>
  <anchor x="508" y="0" name="ogonek"/>
  <anchor x="365" y="660" name="top"/>
  <outline>
    <contour>
      <point x="583" y="274" type="line"/>
      <point x="625" y="273"/>
      <point x="657" y="240"/>
      <point x="657" y="176" type="curve" smooth="yes"/>
      <point x="657" y="104"/>
      <point x="609" y="75"/>
      <point x="511" y="75" type="curve" smooth="yes"/>
      <point x="354" y="75" type="line"/>
      <point x="354" y="0" type="line"/>
      <point x="528" y="0" type="line" smooth="yes"/>
      <point x="655" y="0"/>
      <point x="737" y="62"/>
      <point x="737" y="175" type="curve" smooth="yes"/>
      <point x="737" y="275"/>
      <point x="679" y="335"/>
      <point x="614" y="338" type="curve"/>
    </contour>
    <contour>
      <point x="108" y="0" type="line"/>
      <point x="188" y="0" type="line"/>
      <point x="188" y="660" type="line"/>
      <point x="108" y="660" type="line"/>
    </contour>
    <contour>
      <point x="150" y="288" type="line"/>
      <point x="406" y="288" type="line"/>
      <point x="406" y="363" type="line"/>
      <point x="150" y="363" type="line"/>
    </contour>
    <contour>
      <point x="150" y="585" type="line"/>
      <point x="596" y="585" type="line"/>
      <point x="596" y="660" type="line"/>
      <point x="150" y="660" type="line"/>
    </contour>
    <contour>
      <point x="150" y="0" type="line"/>
      <point x="501" y="0" type="line"/>
      <point x="501" y="75" type="line"/>
      <point x="150" y="75" type="line"/>
    </contour>
  </outline>
</glyph>
<glyph name="N.swsh" format="2">
  <advance width="734"/>
  <anchor x="397" y="0" name="bottom"/>
  <anchor x="582" y="0" name="bottomC"/>
  <anchor x="626" y="0" name="ogonek"/>
  <anchor x="371" y="660" name="top"/>
  <outline>
    <contour>
      <point x="184" y="0" type="line"/>
      <point x="184" y="466" type="line"/>
      <point x="180" y="572" type="line"/>
      <point x="181" y="572" type="line"/>
      <point x="251" y="442" type="line"/>
      <point x="527" y="0" type="line"/>
      <point x="626" y="0" type="line"/>
      <point x="626" y="492" type="line"/>
      <point x="550" y="492" type="line"/>
      <point x="550" y="194" type="line"/>
      <point x="554" y="88" type="line"/>
      <point x="553" y="88" type="line"/>
      <point x="482" y="220" type="line"/>
      <point x="207" y="660" type="line"/>
      <point x="108" y="660" type="line"/>
      <point x="108" y="0" type="line"/>
    </contour>
    <contour>
      <point x="626" y="423" type="line"/>
      <point x="626" y="535" type="line" smooth="yes"/>
      <point x="626" y="612"/>
      <point x="669" y="666"/>
      <point x="742" y="666" type="curve" smooth="yes"/>
      <point x="813" y="666"/>
      <point x="844" y="635"/>
      <point x="856" y="561" type="curve"/>
      <point x="915" y="604" type="line"/>
      <point x="903" y="683"/>
      <point x="849" y="735"/>
      <point x="742" y="735" type="curve" smooth="yes"/>
      <point x="616" y="735"/>
      <point x="550" y="651"/>
      <point x="550" y="559" type="curve" smooth="yes"/>
      <point x="550" y="423" type="line"/>
    </contour>
  </outline>
</glyph>
<glyph name="Odieresis.titl" format="2">
  <advance width="748"/>
  <outline>
    <contour>
      <point x="275" y="560"/>
      <point x="253" y="538"/>
      <point x="253" y="506" type="curve" smooth="yes"/>
      <point x="253" y="473"/>
      <point x="275" y="451"/>
      <point x="307" y="451" type="curve" smooth="yes"/>
      <point x="340" y="451"/>
      <point x="362" y="473"/>
      <point x="362" y="506" type="curve" smooth="yes"/>
      <point x="362" y="538"/>
      <point x="340" y="560"/>
      <point x="307" y="560" type="curve" smooth="yes"/>
    </contour>
    <contour>
      <point x="408" y="560"/>
      <point x="386" y="538"/>
      <point x="386" y="506" type="curve" smooth="yes"/>
      <point x="386" y="473"/>
      <point x="408" y="451"/>
      <point x="441" y="451" type="curve" smooth="yes"/>
      <point x="473" y="451"/>
      <point x="495" y="473"/>
      <point x="495" y="506" type="curve" smooth="yes"/>
      <point x="495" y="538"/>
      <point x="473" y="560"/>
      <point x="441" y="560" type="curve" smooth="yes"/>
    </contour>
    <contour>
      <point x="186" y="670"/>
      <point x="68" y="539"/>
      <point x="68" y="330" type="curve" smooth="yes"/>
      <point x="68" y="121"/>
      <point x="186" y="-10"/>
      <point x="374" y="-10" type="curve" smooth="yes"/>
      <point x="562" y="-10"/>
      <point x="680" y="121"/>
      <point x="680" y="330" type="curve" smooth="yes"/>
      <point x="680" y="539"/>
      <point x="562" y="670"/>
      <point x="374" y="670" type="curve" smooth="yes"/>
    </contour>
    <contour>
      <point x="511" y="595"/>
      <point x="596" y="496"/>
      <point x="596" y="330" type="curve" smooth="yes"/>
      <point x="596" y="164"/>
      <point x="511" y="65"/>
      <point x="374" y="65" type="curve" smooth="yes"/>
      <point x="237" y="65"/>
      <point x="152" y="164"/>
      <point x="152" y="330" type="curve" smooth="yes"/>
      <point x="152" y="496"/>
      <point x="237" y="595"/>
      <point x="374" y="595" type="curve" smooth="yes"/>
    </contour>
  </outline>
</glyph>
<glyph name="Osuperior" format="2">
  <advance width="462"/>
  <outline>
    <contour>
      <point x="108" y="735"/>
      <point x="35" y="658"/>
      <point x="35" y="531" type="curve" smooth="yes"/>
      <point x="35" y="404"/>
      <point x="108" y="327"/>
      <point x="231" y="327" type="curve" smooth="yes"/>
      <point x="354" y="327"/>
      <point x="427" y="404"/>
      <point x="427" y="531" type="curve" smooth="yes"/>
      <point x="427" y="658"/>
      <point x="354" y="735"/>
      <point x="231" y="735" type="curve" smooth="yes"/>
    </contour>
    <contour>
      <point x="309" y="678"/>
      <point x="357" y="624"/>
      <point x="357" y="531" type="curve" smooth="yes"/>
      <point x="357" y="438"/>
      <point x="309" y="384"/>
      <point x="231" y="384" type="curve" smooth="yes"/>
      <point x="153" y="384"/>
      <point x="105" y="438"/>
      <point x="105" y="531" type="curve" smooth="yes"/>
      <point x="105" y="624"/>
      <point x="153" y="678"/>
      <point x="231" y="678" type="curve" smooth="yes"/>
    </contour>
  </outline>
</glyph>
<glyph name="T.swsh" format="2">
  <advance width="709"/>
  <anchor x="423" y="0" name="bottom"/>
  <anchor x="436" y="0" name="bottomC"/>
  <anchor x="407" y="330" name="center"/>
  <anchor x="447" y="0" name="ogonek"/>
  <anchor x="407" y="660" name="top"/>
  <outline>
    <contour>
      <point x="200" y="366" type="line"/>
      <point x="136" y="377"/>
      <point x="90" y="419"/>
      <point x="90" y="480" type="curve" smooth="yes"/>
      <point x="90" y="557"/>
      <point x="148" y="585"/>
      <point x="236" y="585" type="curve" smooth="yes"/>
      <point x="413" y="585" type="line"/>
      <point x="413" y="660" type="line"/>
      <point x="219" y="660" type="line" smooth="yes"/>
      <point x="92" y="660"/>
      <point x="10" y="593"/>
      <point x="10" y="481" type="curve" smooth="yes"/>
      <point x="10" y="382"/>
      <point x="84" y="315"/>
      <point x="169" y="302" type="curve"/>
    </contour>
    <contour>
      <point x="447" y="0" type="line"/>
      <point x="447" y="660" type="line"/>
      <point x="367" y="660" type="line"/>
      <point x="367" y="0" type="line"/>
    </contour>
    <contour>
      <point x="677" y="585" type="line"/>
      <point x="677" y="660" type="line"/>
      <point x="279" y="660" type="line"/>
      <point x="279" y="585" type="line"/>
    </contour>
  </outline>
</glyph>
<glyph name="Udieresis.titl" format="2">
  <advance width="720"/>
  <outline>
    <contour>
      <point x="464" y="553"/>
      <point x="486" y="575"/>
      <point x="486" y="608" type="curve" smooth="yes"/>
      <point x="486" y="640"/>
      <point x="464" y="662"/>
      <point x="432" y="662" type="curve" smooth="yes"/>
      <point x="399" y="662"/>
      <point x="377" y="640"/>
      <point x="377" y="608" type="curve" smooth="yes"/>
      <point x="377" y="575"/>
      <point x="399" y="553"/>
      <point x="432" y="553" type="curve" smooth="yes"/>
    </contour>
    <contour>
      <point x="321" y="553"/>
      <point x="343" y="575"/>
      <point x="343" y="608" type="curve" smooth="yes"/>
      <point x="343" y="640"/>
      <point x="321" y="662"/>
      <point x="288" y="662" type="curve" smooth="yes"/>
      <point x="256" y="662"/>
      <point x="234" y="640"/>
      <point x="234" y="608" type="curve" smooth="yes"/>
      <point x="234" y="575"/>
      <point x="256" y="553"/>
      <point x="288" y="553" type="curve" smooth="yes"/>
    </contour>
    <contour>
      <point x="539" y="660" type="line"/>
      <point x="539" y="266" type="line" smooth="yes"/>
      <point x="539" y="128"/>
      <point x="483" y="65"/>
      <point x="360" y="65" type="curve" smooth="yes"/>
      <point x="237" y="65"/>
      <point x="181" y="128"/>
      <point x="181" y="266" type="curve" smooth="yes"/>
      <point x="181" y="660" type="line"/>
      <point x="101" y="660" type="line"/>
      <point x="101" y="246" type="line" smooth="yes"/>
      <point x="101" y="76"/>
      <point x="194" y="-10"/>
      <point x="360" y="-10" type="curve" smooth="yes"/>
      <point x="527" y="-10"/>
      <point x="619" y="76"/>
      <point x="619" y="246" type="curve" smooth="yes"/>
      <point x="619" y="660" type="line"/>
    </contour>
  </outline>
</glyph>
<glyph name="Ydieresis.titl" format="2">
  <advance width="572"/>
  <outline>
    <contour>
      <point x="384" y="561"/>
      <point x="406" y="583"/>
      <point x="406" y="616" type="curve" smooth="yes"/>
      <point x="406" y="648"/>
      <point x="384" y="670"/>
      <point x="352" y="670" type="curve" smooth="yes"/>
      <point x="319" y="670"/>
      <point x="297" y="648"/>
      <point x="297" y="616" type="curve" smooth="yes"/>
      <point x="297" y="583"/>
      <point x="319" y="561"/>
      <point x="352" y="561" type="curve" smooth="yes"/>
    </contour>
    <contour>
      <point x="253" y="561"/>
      <point x="275" y="583"/>
      <point x="275" y="616" type="curve" smooth="yes"/>
      <point x="275" y="648"/>
      <point x="253" y="670"/>
      <point x="220" y="670" type="curve" smooth="yes"/>
      <point x="188" y="670"/>
      <point x="166" y="648"/>
      <point x="166" y="616" type="curve" smooth="yes"/>
      <point x="166" y="583"/>
      <point x="188" y="561"/>
      <point x="220" y="561" type="curve" smooth="yes"/>
    </contour>
    <contour>
      <point x="467" y="660" type="line"/>
      <point x="339" y="434" type="line"/>
      <point x="286" y="340" type="line"/>
      <point x="233" y="434" type="line"/>
      <point x="105" y="660" type="line"/>
      <point x="10" y="660" type="line"/>
      <point x="246" y="258" type="line"/>
      <point x="246" y="0" type="line"/>
      <point x="326" y="0" type="line"/>
      <point x="326" y="258" type="line"/>
      <point x="562" y="660" type="line"/>
    </contour>
  </outline>
</glyph>
<glyph name="a.sc" format="2">
  <advance width="595"/>
  <anchor x="297" y="0" name="bottom"/>
  <anchor x="532" y="0" name="bottomC"/>
  <anchor x="572" y="0" name="ogonek"/>
  <anchor x="297" y="560" name="top"/>
  <outline>
    <contour>
      <point x="107" y="0" type="line"/>
      <point x="272" y="415" type="line"/>
      <point x="297" y="489" type="line"/>
      <point x="298" y="489" type="line"/>
      <point x="323" y="415" type="line"/>
      <point x="488" y="0" type="line"/>
      <point x="572" y="0" type="line"/>
      <point x="345" y="560" type="line"/>
      <point x="250" y="560" type="line"/>
      <point x="23" y="0" type="line"/>
    </contour>
    <contour>
      <point x="456" y="153" type="line"/>
      <point x="456" y="222" type="line"/>
      <point x="139" y="222" type="line"/>
      <point x="139" y="153" type="line"/>
    </contour>
  </outline>
</glyph>
<glyph name="adieresis.titl.sc" format="2">
  <advance width="594"/>
  <outline>
    <contour>
      <point x="181" y="466"/>
      <point x="202" y="486"/>
      <point x="202" y="515" type="curve" smooth="yes"/>
      <point x="202" y="545"/>
      <point x="181" y="565"/>
      <point x="149" y="565" type="curve" smooth="yes"/>
      <point x="118" y="565"/>
      <point x="97" y="545"/>
      <point x="97" y="515" type="curve" smooth="yes"/>
      <point x="97" y="486"/>
      <point x="118" y="466"/>
      <point x="149" y="466" type="curve" smooth="yes"/>
    </contour>
    <contour>
      <point x="484" y="466"/>
      <point x="505" y="486"/>
      <point x="505" y="515" type="curve" smooth="yes"/>
      <point x="505" y="545"/>
      <point x="484" y="565"/>
      <point x="453" y="565" type="curve" smooth="yes"/>
      <point x="422" y="565"/>
      <point x="401" y="545"/>
      <point x="401" y="515" type="curve" smooth="yes"/>
      <point x="401" y="486"/>
      <point x="422" y="466"/>
      <point x="453" y="466" type="curve" smooth="yes"/>
    </contour>
    <contour>
      <point x="111" y="0" type="line"/>
      <point x="276" y="415" type="line"/>
      <point x="301" y="489" type="line"/>
      <point x="302" y="489" type="line"/>
      <point x="327" y="415" type="line"/>
      <point x="492" y="0" type="line"/>
      <point x="576" y="0" type="line"/>
      <point x="349" y="560" type="line"/>
      <point x="254" y="560" type="line"/>
      <point x="27" y="0" type="line"/>
    </contour>
    <contour>
      <point x="460" y="153" type="line"/>
      <point x="460" y="222" type="line"/>
      <point x="143" y="222" type="line"/>
      <point x="143" y="153" type="line"/>
    </contour>
  </outline>
</glyph>
<glyph name="ampersand.sc" format="2">
  <advance width="563"/>
  <outline>
    <contour>
      <point x="562" y="49" type="line"/>
      <point x="497" y="46"/>
      <point x="472" y="74"/>
      <point x="337" y="226" type="curve" smooth="yes"/>
      <point x="202" y="378"/>
      <point x="187" y="397"/>
      <point x="187" y="439" type="curve" smooth="yes"/>
      <point x="187" y="477"/>
      <point x="212" y="506"/>
      <point x="259" y="506" type="curve" smooth="yes"/>
      <point x="305" y="506"/>
      <point x="333" y="486"/>
      <point x="333" y="446" type="curve" smooth="yes"/>
      <point x="333" y="405"/>
      <point x="322" y="370"/>
      <point x="220" y="323" type="curve"/>
      <point x="90" y="263"/>
      <point x="43" y="212"/>
      <point x="43" y="134" type="curve" smooth="yes"/>
      <point x="43" y="50"/>
      <point x="121" y="-8"/>
      <point x="232" y="-8" type="curve" smooth="yes"/>
      <point x="318" y="-8"/>
      <point x="386" y="24"/>
      <point x="432" y="75" type="curve"/>
      <point x="485" y="133"/>
      <point x="510" y="213"/>
      <point x="507" y="294" type="curve"/>
      <point x="449" y="310" type="line"/>
      <point x="453" y="221"/>
      <point x="431" y="158"/>
      <point x="388" y="115" type="curve"/>
      <point x="350" y="73"/>
      <point x="296" y="50"/>
      <point x="232" y="50" type="curve" smooth="yes"/>
      <point x="169" y="50"/>
      <point x="115" y="87"/>
      <point x="115" y="141" type="curve" smooth="yes"/>
      <point x="115" y="188"/>
      <point x="143" y="221"/>
      <point x="255" y="277" type="curve"/>
      <point x="375" y="337"/>
      <point x="402" y="384"/>
      <point x="402" y="450" type="curve" smooth="yes"/>
      <point x="402" y="529"/>
      <point x="338" y="568"/>
      <point x="259" y="568" type="curve" smooth="yes"/>
      <point x="164" y="568"/>
      <point x="115" y="505"/>
      <point x="115" y="441" type="curve" smooth="yes"/>
      <point x="115" y="376"/>
      <point x="152" y="333"/>
      <point x="289" y="183" type="curve" smooth="yes"/>
      <point x="440" y="17"/>
      <point x="474" y="-8"/>
      <point x="547" y="-8" type="curve"/>
    </contour>
  </outline>
</glyph>
<glyph name="blackCircle.case" format="2">
  <advance width="780"/>
  <outline>
    <contour>
      <point x="584" y="-10"/>
      <point x="730" y="136"/>
      <point x="730" y="330" type="curve" smooth="yes"/>
      <point x="730" y="524"/>
      <point x="584" y="670"/>
      <point x="390" y="670" type="curve" smooth="yes"/>
      <point x="196" y="670"/>
      <point x="50" y="524"/>
      <point x="50" y="330" type="curve" smooth="yes"/>
      <point x="50" y="136"/>
      <point x="196" y="-10"/>
      <point x="390" y="-10" type="curve" smooth="yes"/>
    </contour>
  </outline>
</glyph>
<glyph name="blackDiamond.case" format="2">
  <advance width="780"/>
  <outline>
    <contour>
      <point x="730" y="330" type="line"/>
      <point x="390" y="670" type="line"/>
      <point x="50" y="330" type="line"/>
      <point x="390" y="-10" type="line"/>
    </contour>
  </outline>
</glyph>
<glyph name="blackSmallSquare.case" format="2">
  <advance width="780"/>
  <outline>
    <contour>
      <point x="60" y="0" type="line"/>
      <point x="720" y="0" type="line"/>
      <point x="720" y="660" type="line"/>
      <point x="60" y="660" type="line"/>
    </contour>
  </outline>
</glyph>
<glyph name="bracketleft.case" format="2">
  <advance width="348"/>
  <outline>
    <contour>
      <point x="87" y="752" type="line"/>
      <point x="87" y="-97" type="line"/>
      <point x="162" y="-97" type="line"/>
      <point x="162" y="752" type="line"/>
    </contour>
    <contour>
      <point x="129" y="-27" type="line"/>
      <point x="129" y="-97" type="line"/>
      <point x="315" y="-97" type="line"/>
      <point x="315" y="-27" type="line"/>
    </contour>
    <contour>
      <point x="129" y="752" type="line"/>
      <point x="129" y="682" type="line"/>
      <point x="315" y="682" type="line"/>
      <point x="315" y="752" type="line"/>
    </contour>
  </outline>
</glyph>
<glyph name="eight.osf" format="2">
  <advance width="590"/>
  <outline>
    <contour>
      <point x="170" y="669"/>
      <point x="88" y="603"/>
      <point x="88" y="496" type="curve" smooth="yes"/>
      <point x="88" y="427"/>
      <point x="123" y="373"/>
      <point x="179" y="348" type="curve"/>
      <point x="179" y="347" type="line"/>
      <point x="104" y="319"/>
      <point x="58" y="259"/>
      <point x="58" y="178" type="curve" smooth="yes"/>
      <point x="58" y="63"/>
      <point x="153" y="-10"/>
      <point x="295" y="-10" type="curve" smooth="yes"/>
      <point x="438" y="-10"/>
      <point x="532" y="63"/>
      <point x="532" y="178" type="curve" smooth="yes"/>
      <point x="532" y="261"/>
      <point x="485" y="319"/>
      <point x="412" y="347" type="curve"/>
      <point x="412" y="348" type="line"/>
      <point x="468" y="374"/>
      <point x="502" y="428"/>
      <point x="502" y="496" type="curve" smooth="yes"/>
      <point x="502" y="603"/>
      <point x="420" y="669"/>
      <point x="295" y="669" type="curve" smooth="yes"/>
    </contour>
    <contour>
      <point x="372" y="601"/>
      <point x="422" y="560"/>
      <point x="422" y="491" type="curve" smooth="yes"/>
      <point x="422" y="422"/>
      <point x="372" y="381"/>
      <point x="295" y="381" type="curve" smooth="yes"/>
      <point x="218" y="381"/>
      <point x="168" y="422"/>
      <point x="168" y="491" type="curve" smooth="yes"/>
      <point x="168" y="560"/>
      <point x="218" y="601"/>
      <point x="295" y="601" type="curve" smooth="yes"/>
    </contour>
    <contour>
      <point x="199" y="58"/>
      <point x="138" y="106"/>
      <point x="138" y="185" type="curve" smooth="yes"/>
      <point x="138" y="264"/>
      <point x="199" y="312"/>
      <point x="295" y="312" type="curve" smooth="yes"/>
      <point x="391" y="312"/>
      <point x="452" y="264"/>
      <point x="452" y="185" type="curve" smooth="yes"/>
      <point x="452" y="106"/>
      <point x="391" y="58"/>
      <point x="295" y="58" type="curve" smooth="yes"/>
    </contour>
  </outline>
</glyph>
<glyph name="eight.sc" format="2">
  <advance width="556"/>
  <outline>
    <contour>
      <point x="410" y="-8"/>
      <point x="496" y="53"/>
      <point x="496" y="151" type="curve" smooth="yes"/>
      <point x="496" y="220"/>
      <point x="451" y="270"/>
      <point x="381" y="292" type="curve"/>
      <point x="381" y="293" type="line"/>
      <point x="440" y="314"/>
      <point x="476" y="360"/>
      <point x="476" y="419" type="curve" smooth="yes"/>
      <point x="476" y="511"/>
      <point x="398" y="567"/>
      <point x="278" y="567" type="curve" smooth="yes"/>
      <point x="158" y="567"/>
      <point x="80" y="511"/>
      <point x="80" y="419" type="curve" smooth="yes"/>
      <point x="80" y="360"/>
      <point x="116" y="314"/>
      <point x="175" y="293" type="curve"/>
      <point x="175" y="292" type="line"/>
      <point x="105" y="270"/>
      <point x="60" y="220"/>
      <point x="60" y="151" type="curve" smooth="yes"/>
      <point x="60" y="53"/>
      <point x="146" y="-8"/>
      <point x="278" y="-8" type="curve" smooth="yes"/>
    </contour>
    <contour>
      <point x="193" y="59"/>
      <point x="140" y="97"/>
      <point x="140" y="158" type="curve" smooth="yes"/>
      <point x="140" y="220"/>
      <point x="195" y="258"/>
      <point x="278" y="258" type="curve" smooth="yes"/>
      <point x="361" y="258"/>
      <point x="416" y="220"/>
      <point x="416" y="158" type="curve" smooth="yes"/>
      <point x="416" y="97"/>
      <point x="363" y="59"/>
      <point x="278" y="59" type="curve" smooth="yes"/>
    </contour>
    <contour>
      <point x="207" y="325"/>
      <point x="160" y="359"/>
      <point x="160" y="413" type="curve" smooth="yes"/>
      <point x="160" y="468"/>
      <point x="206" y="500"/>
      <point x="278" y="500" type="curve" smooth="yes"/>
      <point x="350" y="500"/>
      <point x="396" y="468"/>
      <point x="396" y="413" type="curve" smooth="yes"/>
      <point x="396" y="359"/>
      <point x="349" y="325"/>
      <point x="278" y="325" type="curve" smooth="yes"/>
    </contour>
  </outline>
</glyph>
<glyph name="euro.part" format="2">
  <advance width="700"/>
  <outline>
    <contour>
      <point x="240" y="670"/>
      <point x="138" y="539"/>
      <point x="138" y="330" type="curve" smooth="yes"/>
      <point x="138" y="121"/>
      <point x="238" y="-10"/>
      <point x="414" y="-10" type="curve" smooth="yes"/>
      <point x="524" y="-10"/>
      <point x="623" y="56"/>
      <point x="660" y="169" type="curve"/>
      <point x="587" y="196" type="line"/>
      <point x="563" y="107"/>
      <point x="489" y="60"/>
      <point x="415" y="60" type="curve" smooth="yes"/>
      <point x="293" y="60"/>
      <point x="218" y="164"/>
      <point x="218" y="330" type="curve" smooth="yes"/>
      <point x="218" y="497"/>
      <point x="299" y="600"/>
      <point x="419" y="600" type="curve" smooth="yes"/>
      <point x="492" y="600"/>
      <point x="553" y="558"/>
      <point x="576" y="482" type="curve"/>
      <point x="648" y="516" type="line"/>
      <point x="612" y="616"/>
      <point x="525" y="670"/>
      <point x="412" y="670" type="curve" smooth="yes"/>
    </contour>
  </outline>
</glyph>
<glyph name="exclam.sc" format="2">
  <advance width="246"/>
  <outline>
    <contour>
      <point x="82" y="560" type="line"/>
      <point x="82" y="325" type="line"/>
      <point x="92" y="174" type="line"/>
      <point x="155" y="174" type="line"/>
      <point x="165" y="325" type="line"/>
      <point x="165" y="560" type="line"/>
    </contour>
    <component base="period" xScale="0.94" yScale="0.92" xOffset="-2"/>
  </outline>
</glyph>
<glyph name="f_t.liga" format="2">
  <advance width="762"/>
  <anchor x="599" y="0" name="bottom"/>
  <anchor x="507" y="250" name="center"/>
  <anchor x="635" y="767" name="topright"/>
  <outline>
    <contour>
      <point x="186" y="735"/>
      <point x="132" y="673"/>
      <point x="132" y="584" type="curve" smooth="yes"/>
      <point x="132" y="0" type="line"/>
      <point x="212" y="0" type="line"/>
      <point x="212" y="474" type="line"/>
      <point x="212" y="500" type="line"/>
      <point x="212" y="576" type="line" smooth="yes"/>
      <point x="212" y="636"/>
      <point x="245" y="662"/>
      <point x="303" y="662" type="curve" smooth="yes"/>
      <point x="326" y="662"/>
      <point x="344" y="657"/>
      <point x="360" y="647" type="curve"/>
      <point x="381" y="712" type="line"/>
      <point x="363" y="727"/>
      <point x="331" y="735"/>
      <point x="296" y="735" type="curve" smooth="yes"/>
    </contour>
    <contour>
      <point x="32" y="500" type="line"/>
      <point x="32" y="431" type="line"/>
      <point x="379" y="431" type="line"/>
      <point x="379" y="500" type="line"/>
    </contour>
    <contour>
      <point x="474" y="620" type="line"/>
      <point x="474" y="124" type="line" smooth="yes"/>
      <point x="475" y="27"/>
      <point x="539" y="-10"/>
      <point x="613" y="-10" type="curve" smooth="yes"/>
      <point x="668" y="-10"/>
      <point x="711" y="7"/>
      <point x="742" y="35" type="curve"/>
      <point x="714" y="102" type="line"/>
      <point x="691" y="79"/>
      <point x="665" y="65"/>
      <point x="629" y="65" type="curve" smooth="yes"/>
      <point x="585" y="65"/>
      <point x="554" y="89"/>
      <point x="554" y="138" type="curve" smooth="yes"/>
      <point x="554" y="642" type="line"/>
    </contour>
    <contour>
      <point x="374" y="500" type="line"/>
      <point x="374" y="431" type="line"/>
      <point x="739" y="431" type="line"/>
      <point x="739" y="500" type="line"/>
    </contour>
  </outline>
</glyph>
<glyph name="five.osf" format="2">
  <advance width="560"/>
  <outline>
    <contour>
      <point x="234" y="323"/>
      <point x="184" y="301"/>
      <point x="151" y="268" type="curve"/>
      <point x="150" y="268" type="line"/>
      <point x="152" y="277" type="line"/>
      <point x="178" y="492" type="line"/>
      <point x="482" y="492" type="line"/>
      <point x="482" y="560" type="line"/>
      <point x="111" y="560" type="line"/>
      <point x="71" y="184" type="line"/>
      <point x="142" y="184" type="line"/>
      <point x="173" y="229"/>
      <point x="225" y="255"/>
      <point x="289" y="255" type="curve" smooth="yes"/>
      <point x="383" y="255"/>
      <point x="432" y="199"/>
      <point x="432" y="106" type="curve" smooth="yes"/>
      <point x="432" y="14"/>
      <point x="379" y="-42"/>
      <point x="286" y="-42" type="curve" smooth="yes"/>
      <point x="194" y="-42"/>
      <point x="151" y="8"/>
      <point x="130" y="82" type="curve"/>
      <point x="56" y="41" type="line"/>
      <point x="94" y="-54"/>
      <point x="163" y="-110"/>
      <point x="286" y="-110" type="curve" smooth="yes"/>
      <point x="427" y="-110"/>
      <point x="512" y="-27"/>
      <point x="512" y="110" type="curve" smooth="yes"/>
      <point x="512" y="238"/>
      <point x="430" y="323"/>
      <point x="304" y="323" type="curve" smooth="yes"/>
    </contour>
  </outline>
</glyph>
<glyph name="four.tosf" format="2">
  <advance width="604"/>
  <outline>
    <contour>
      <point x="456" y="-100" type="line"/>
      <point x="456" y="73" type="line"/>
      <point x="569" y="73" type="line"/>
      <point x="569" y="142" type="line"/>
      <point x="456" y="142" type="line"/>
      <point x="456" y="560" type="line"/>
      <point x="352" y="560" type="line"/>
      <point x="50" y="132" type="line"/>
      <point x="50" y="73" type="line"/>
      <point x="376" y="73" type="line"/>
      <point x="376" y="-100" type="line"/>
    </contour>
    <contour>
      <point x="316" y="390" type="line" smooth="yes"/>
      <point x="338" y="421"/>
      <point x="361" y="453"/>
      <point x="378" y="490" type="curve"/>
      <point x="380" y="490" type="line"/>
      <point x="377" y="444"/>
      <point x="376" y="400"/>
      <point x="376" y="357" type="curve" smooth="yes"/>
      <point x="376" y="142" type="line"/>
      <point x="135" y="142" type="line"/>
    </contour>
  </outline>
</glyph>
<glyph name="g.sc.ss04" format="2">
  <advance width="644"/>
  <anchor x="359" y="0" name="bottom"/>
  <anchor x="336" y="0" name="bottomC"/>
  <anchor x="403" y="0" name="ogonek"/>
  <anchor x="334" y="560" name="top"/>
  <outline>
    <contour>
      <point x="503" y="-8"/>
      <point x="591" y="86"/>
      <point x="591" y="253" type="curve" smooth="yes"/>
      <point x="591" y="285" type="line"/>
      <point x="328" y="285" type="line"/>
      <point x="328" y="219" type="line"/>
      <point x="558" y="219" type="line"/>
      <point x="517" y="252" type="line"/>
      <point x="517" y="216" type="line" smooth="yes"/>
      <point x="517" y="147"/>
      <point x="473" y="61"/>
      <point x="342" y="61" type="curve" smooth="yes"/>
      <point x="211" y="61"/>
      <point x="140" y="141"/>
      <point x="140" y="280" type="curve" smooth="yes"/>
      <point x="140" y="418"/>
      <point x="219" y="499"/>
      <point x="337" y="499" type="curve" smooth="yes"/>
      <point x="420" y="499"/>
      <point x="479" y="465"/>
      <point x="503" y="399" type="curve"/>
      <point x="577" y="435" type="line"/>
      <point x="532" y="526"/>
      <point x="458" y="568"/>
      <point x="337" y="568" type="curve" smooth="yes"/>
      <point x="170" y="568"/>
      <point x="60" y="458"/>
      <point x="60" y="280" type="curve" smooth="yes"/>
      <point x="60" y="101"/>
      <point x="167" y="-8"/>
      <point x="335" y="-8" type="curve" smooth="yes"/>
    </contour>
  </outline>
</glyph>
<glyph name="g_j.liga" format="2">
  <advance width="828"/>
  <outline>
    <contour>
      <point x="435" y="592"/>
      <point x="372" y="542"/>
      <point x="374" y="460" type="curve"/>
      <point x="424" y="439" type="line"/>
      <point x="422" y="497"/>
      <point x="462" y="522"/>
      <point x="532" y="522" type="curve"/>
      <point x="514" y="592" type="line"/>
    </contour>
    <contour>
      <point x="111" y="213"/>
      <point x="56" y="174"/>
      <point x="56" y="110" type="curve" smooth="yes"/>
      <point x="56" y="35"/>
      <point x="145" y="-5"/>
      <point x="212" y="-5" type="curve" smooth="yes"/>
      <point x="342" y="-5" type="line" smooth="yes"/>
      <point x="421" y="-5"/>
      <point x="447" y="-28"/>
      <point x="447" y="-64" type="curve" smooth="yes"/>
      <point x="447" y="-108"/>
      <point x="392" y="-148"/>
      <point x="280" y="-148" type="curve" smooth="yes"/>
      <point x="163" y="-148"/>
      <point x="108" y="-119"/>
      <point x="108" y="-70" type="curve" smooth="yes"/>
      <point x="108" y="-31"/>
      <point x="145" y="-5"/>
      <point x="212" y="-5" type="curve"/>
      <point x="188" y="34" type="line"/>
      <point x="95" y="34"/>
      <point x="35" y="-12"/>
      <point x="35" y="-83" type="curve" smooth="yes"/>
      <point x="35" y="-158"/>
      <point x="106" y="-215"/>
      <point x="271" y="-215" type="curve" smooth="yes"/>
      <point x="412" y="-215"/>
      <point x="519" y="-154"/>
      <point x="519" y="-55" type="curve" smooth="yes"/>
      <point x="519" y="17"/>
      <point x="461" y="64"/>
      <point x="361" y="64" type="curve" smooth="yes"/>
      <point x="228" y="64" type="line" smooth="yes"/>
      <point x="159" y="64"/>
      <point x="131" y="85"/>
      <point x="131" y="121" type="curve" smooth="yes"/>
      <point x="131" y="157"/>
      <point x="159" y="181"/>
      <point x="228" y="184" type="curve"/>
      <point x="184" y="217" type="line"/>
    </contour>
    <contour>
      <point x="145" y="510"/>
      <point x="63" y="443"/>
      <point x="63" y="341" type="curve" smooth="yes"/>
      <point x="63" y="239"/>
      <point x="145" y="172"/>
      <point x="271" y="172" type="curve" smooth="yes"/>
      <point x="397" y="172"/>
      <point x="479" y="239"/>
      <point x="479" y="341" type="curve" smooth="yes"/>
      <point x="479" y="443"/>
      <point x="397" y="510"/>
      <point x="271" y="510" type="curve" smooth="yes"/>
    </contour>
    <contour>
      <point x="351" y="443"/>
      <point x="398" y="405"/>
      <point x="398" y="341" type="curve" smooth="yes"/>
      <point x="398" y="277"/>
      <point x="351" y="239"/>
      <point x="271" y="239" type="curve" smooth="yes"/>
      <point x="191" y="239"/>
      <point x="144" y="277"/>
      <point x="144" y="341" type="curve" smooth="yes"/>
      <point x="144" y="405"/>
      <point x="191" y="443"/>
      <point x="271" y="443" type="curve" smooth="yes"/>
    </contour>
    <contour>
      <point x="655" y="500" type="line"/>
      <point x="655" y="-43" type="line" smooth="yes"/>
      <point x="655" y="-113"/>
      <point x="640" y="-137"/>
      <point x="602" y="-137" type="curve" smooth="yes"/>
      <point x="580" y="-137"/>
      <point x="565" y="-134"/>
      <point x="550" y="-126" type="curve"/>
      <point x="535" y="-202" type="line"/>
      <point x="552" y="-210"/>
      <point x="574" y="-215"/>
      <point x="603" y="-215" type="curve" smooth="yes"/>
      <point x="671" y="-215"/>
      <point x="735" y="-176"/>
      <point x="735" y="-51" type="curve" smooth="yes"/>
      <point x="735" y="500" type="line"/>
    </contour>
    <contour>
      <point x="662" y="716"/>
      <point x="635" y="689"/>
      <point x="635" y="656" type="curve" smooth="yes"/>
      <point x="635" y="623"/>
      <point x="662" y="596"/>
      <point x="695" y="596" type="curve" smooth="yes"/>
      <point x="728" y="596"/>
      <point x="755" y="623"/>
      <point x="755" y="656" type="curve" smooth="yes"/>
      <point x="755" y="689"/>
      <point x="728" y="716"/>
      <point x="695" y="716" type="curve" smooth="yes"/>
    </contour>
  </outline>
</glyph>
<glyph name="longs_l" format="2">
  <advance width="566"/>
  <anchor x="529" y="355" name="center"/>
  <anchor x="474" y="0" name="bottom"/>
  <anchor x="389" y="730" name="top"/>
  <anchor x="463" y="0" name="bottomC"/>
  <anchor x="506" y="730" name="topright"/>
  <anchor x="526" y="0" name="ogonek"/>
  <outline>
    <contour>
      <point x="169" y="0" type="line"/>
      <point x="169" y="576" type="line" smooth="yes"/>
      <point x="169" y="636"/>
      <point x="195" y="662"/>
      <point x="240" y="662" type="curve" smooth="yes"/>
      <point x="258" y="662"/>
      <point x="272" y="657"/>
      <point x="285" y="647" type="curve"/>
      <point x="301" y="712" type="line"/>
      <point x="287" y="727"/>
      <point x="262" y="735"/>
      <point x="224" y="735" type="curve" smooth="yes"/>
      <point x="125" y="735"/>
      <point x="89" y="673"/>
      <point x="89" y="584" type="curve" smooth="yes"/>
      <point x="89" y="0" type="line"/>
    </contour>
    <component base="l" xOffset="260"/>
  </outline>
</glyph>
<glyph name="lslash.sc" format="2">
  <advance width="545"/>
  <anchor x="339" y="0" name="bottom"/>
  <anchor x="339" y="0" name="bottomC"/>
  <anchor x="519" y="0" name="ogonek"/>
  <anchor x="153" y="560" name="top"/>
  <anchor x="295" y="560" name="topright"/>
  <outline>
    <contour>
      <point x="7" y="235" type="line"/>
      <point x="7" y="162" type="line"/>
      <point x="341" y="336" type="line"/>
      <point x="341" y="409" type="line"/>
    </contour>
    <component base="l.sc" xOffset="11"/>
  </outline>
</glyph>
<glyph name="lslash.ss02" format="2">
  <advance width="323"/>
  <anchor x="163" y="0" name="bottom"/>
  <anchor x="163" y="0" name="bottomC"/>
  <anchor x="203" y="0" name="ogonek"/>
  <anchor x="171" y="730" name="top"/>
  <anchor x="283" y="730" name="topright"/>
  <outline>
    <contour>
      <point x="170" y="323" type="line"/>
      <point x="284" y="395" type="line"/>
      <point x="284" y="478" type="line"/>
      <point x="158" y="398" type="line"/>
      <point x="42" y="324" type="line"/>
      <point x="42" y="241" type="line"/>
    </contour>
    <component base="l.ss02" xOffset="28"/>
  </outline>
</glyph>
<glyph name="odieresis.titl.sc" format="2">
  <advance width="672"/>
  <outline>
    <contour>
      <point x="38" y="565"/>
      <point x="17" y="545"/>
      <point x="17" y="515" type="curve" smooth="yes"/>
      <point x="17" y="486"/>
      <point x="38" y="466"/>
      <point x="69" y="466" type="curve" smooth="yes"/>
      <point x="101" y="466"/>
      <point x="122" y="486"/>
      <point x="122" y="515" type="curve" smooth="yes"/>
      <point x="122" y="545"/>
      <point x="101" y="565"/>
      <point x="69" y="565" type="curve" smooth="yes"/>
    </contour>
    <contour>
      <point x="579" y="565"/>
      <point x="558" y="545"/>
      <point x="558" y="515" type="curve" smooth="yes"/>
      <point x="558" y="486"/>
      <point x="579" y="466"/>
      <point x="610" y="466" type="curve" smooth="yes"/>
      <point x="642" y="466"/>
      <point x="663" y="486"/>
      <point x="663" y="515" type="curve" smooth="yes"/>
      <point x="663" y="545"/>
      <point x="642" y="565"/>
      <point x="610" y="565" type="curve" smooth="yes"/>
    </contour>
    <contour>
      <point x="170" y="568"/>
      <point x="64" y="458"/>
      <point x="64" y="280" type="curve" smooth="yes"/>
      <point x="64" y="102"/>
      <point x="170" y="-8"/>
      <point x="340" y="-8" type="curve" smooth="yes"/>
      <point x="510" y="-8"/>
      <point x="616" y="102"/>
      <point x="616" y="280" type="curve" smooth="yes"/>
      <point x="616" y="458"/>
      <point x="510" y="568"/>
      <point x="340" y="568" type="curve" smooth="yes"/>
    </contour>
    <contour>
      <point x="460" y="499"/>
      <point x="536" y="418"/>
      <point x="536" y="280" type="curve" smooth="yes"/>
      <point x="536" y="142"/>
      <point x="460" y="61"/>
      <point x="340" y="61" type="curve" smooth="yes"/>
      <point x="220" y="61"/>
      <point x="144" y="142"/>
      <point x="144" y="280" type="curve" smooth="yes"/>
      <point x="144" y="418"/>
      <point x="220" y="499"/>
      <point x="340" y="499" type="curve" smooth="yes"/>
    </contour>
  </outline>
</glyph>
<glyph name="p.sc" format="2">
  <advance width="558"/>
  <anchor x="134" y="0" name="bottom"/>
  <anchor x="290" y="560" name="top"/>
  <outline>
    <contour>
      <point x="311" y="216" type="line" smooth="yes"/>
      <point x="435" y="216"/>
      <point x="515" y="281"/>
      <point x="515" y="387" type="curve" smooth="yes"/>
      <point x="515" y="495"/>
      <point x="435" y="560"/>
      <point x="311" y="560" type="curve" smooth="yes"/>
      <point x="139" y="560" type="line"/>
      <point x="139" y="491" type="line"/>
      <point x="312" y="491" type="line" smooth="yes"/>
      <point x="393" y="491"/>
      <point x="435" y="455"/>
      <point x="435" y="387" type="curve" smooth="yes"/>
      <point x="435" y="320"/>
      <point x="393" y="285"/>
      <point x="312" y="285" type="curve" smooth="yes"/>
      <point x="139" y="285" type="line"/>
      <point x="139" y="216" type="line"/>
    </contour>
    <contour>
      <point x="174" y="0" type="line"/>
      <point x="174" y="560" type="line"/>
      <point x="94" y="560" type="line"/>
      <point x="94" y="0" type="line"/>
    </contour>
  </outline>
</glyph>
<glyph name="periodsuperior" format="2">
  <advance width="186"/>
  <outline>
    <contour>
      <point x="66" y="417"/>
      <point x="48" y="399"/>
      <point x="48" y="372" type="curve" smooth="yes"/>
      <point x="48" y="345"/>
      <point x="66" y="327"/>
      <point x="93" y="327" type="curve" smooth="yes"/>
      <point x="120" y="327"/>
      <point x="138" y="345"/>
      <point x="138" y="372" type="curve" smooth="yes"/>
      <point x="138" y="399"/>
      <point x="120" y="417"/>
      <point x="93" y="417" type="curve" smooth="yes"/>
    </contour>
  </outline>
</glyph>
<glyph name="seven.sc" format="2">
  <advance width="511"/>
  <outline>
    <contour>
      <point x="38" y="491" type="line"/>
      <point x="430" y="491" type="line"/>
      <point x="417" y="512" type="line"/>
      <point x="266" y="371"/>
      <point x="190" y="190"/>
      <point x="188" y="0" type="curve"/>
      <point x="268" y="0" type="line"/>
      <point x="270" y="189"/>
      <point x="331" y="348"/>
      <point x="479" y="493" type="curve"/>
      <point x="479" y="560" type="line"/>
      <point x="38" y="560" type="line"/>
    </contour>
  </outline>
</glyph>
<glyph name="seven.tosf" format="2">
  <advance width="604"/>
  <outline>
    <contour>
      <point x="59" y="490" type="line"/>
      <point x="490" y="490" type="line"/>
      <point x="477" y="505" type="line"/>
      <point x="310" y="334"/>
      <point x="229" y="122"/>
      <point x="229" y="-100" type="curve"/>
      <point x="309" y="-100" type="line"/>
      <point x="309" y="123"/>
      <point x="378" y="310"/>
      <point x="545" y="485" type="curve"/>
      <point x="545" y="560" type="line"/>
      <point x="59" y="560" type="line"/>
    </contour>
  </outline>
</glyph>
<glyph name="sterling.part" format="2">
  <advance width="602"/>
  <outline>
    <contour>
      <point x="221" y="670"/>
      <point x="133" y="585"/>
      <point x="133" y="467" type="curve" smooth="yes"/>
      <point x="133" y="423"/>
      <point x="151" y="386"/>
      <point x="204" y="319" type="curve" smooth="yes"/>
      <point x="256" y="256"/>
      <point x="275" y="217"/>
      <point x="275" y="173" type="curve" smooth="yes"/>
      <point x="275" y="105"/>
      <point x="237" y="44"/>
      <point x="155" y="44" type="curve" smooth="yes"/>
      <point x="128" y="44"/>
      <point x="108" y="55"/>
      <point x="108" y="76" type="curve" smooth="yes"/>
      <point x="108" y="94"/>
      <point x="122" y="105"/>
      <point x="154" y="105" type="curve" smooth="yes"/>
      <point x="248" y="105"/>
      <point x="316" y="-10"/>
      <point x="438" y="-10" type="curve" smooth="yes"/>
      <point x="524" y="-10"/>
      <point x="574" y="46"/>
      <point x="574" y="153" type="curve"/>
      <point x="509" y="153" type="line"/>
      <point x="508" y="83"/>
      <point x="484" y="54"/>
      <point x="427" y="54" type="curve" smooth="yes"/>
      <point x="325" y="54"/>
      <point x="289" y="165"/>
      <point x="153" y="165" type="curve" smooth="yes"/>
      <point x="78" y="165"/>
      <point x="35" y="123"/>
      <point x="35" y="76" type="curve" smooth="yes"/>
      <point x="35" y="26"/>
      <point x="77" y="-10"/>
      <point x="145" y="-10" type="curve" smooth="yes"/>
      <point x="271" y="-10"/>
      <point x="335" y="88"/>
      <point x="335" y="177" type="curve" smooth="yes"/>
      <point x="335" y="232"/>
      <point x="316" y="280"/>
      <point x="265" y="350" type="curve" smooth="yes"/>
      <point x="220" y="414"/>
      <point x="207" y="443"/>
      <point x="207" y="480" type="curve" smooth="yes"/>
      <point x="207" y="550"/>
      <point x="258" y="597"/>
      <point x="340" y="597" type="curve" smooth="yes"/>
      <point x="419" y="597"/>
      <point x="455" y="552"/>
      <point x="474" y="476" type="curve"/>
      <point x="543" y="514" type="line"/>
      <point x="514" y="619"/>
      <point x="449" y="670"/>
      <point x="344" y="670" type="curve" smooth="yes"/>
    </contour>
  </outline>
</glyph>
<glyph name="uni0162.sc" format="2">
  <advance width="551"/>
  <anchor x="276" y="-210" name="bottom"/>
  <anchor x="276" y="-210" name="bottomC"/>
  <anchor x="306" y="-210" name="ogonek"/>
  <anchor x="276" y="560" name="top"/>
  <anchor x="244" y="247" name="center"/>
  <outline>
    <contour>
      <point x="294" y="-39"/>
      <point x="316" y="-59"/>
      <point x="316" y="-97" type="curve" smooth="yes"/>
      <point x="316" y="-132"/>
      <point x="291" y="-155"/>
      <point x="259" y="-155" type="curve" smooth="yes"/>
      <point x="231" y="-155"/>
      <point x="206" y="-142"/>
      <point x="190" y="-125" type="curve"/>
      <point x="160" y="-180" type="line"/>
      <point x="188" y="-205"/>
      <point x="223" y="-215"/>
      <point x="270" y="-215" type="curve" smooth="yes"/>
      <point x="342" y="-215"/>
      <point x="387" y="-164"/>
      <point x="387" y="-109" type="curve" smooth="yes"/>
      <point x="387" y="-65"/>
      <point x="366" y="-23"/>
      <point x="309" y="14" type="curve"/>
      <point x="236" y="0" type="line"/>
    </contour>
    <component base="t.sc"/>
  </outline>
</glyph>
<glyph name="uni20BA.tf" format="2">
  <advance width="604"/>
  <outline>
    <contour>
      <point x="488" y="268" type="line"/>
      <point x="488" y="131"/>
      <point x="427" y="68"/>
      <point x="303" y="68" type="curve" smooth="yes"/>
      <point x="197" y="68" type="line"/>
      <point x="197" y="0" type="line"/>
      <point x="311" y="0" type="line" smooth="yes"/>
      <point x="472" y="0"/>
      <point x="558" y="85"/>
      <point x="565" y="268" type="curve"/>
    </contour>
    <contour>
      <point x="155" y="660" type="line"/>
      <point x="155" y="0" type="line"/>
      <point x="230" y="0" type="line"/>
      <point x="230" y="660" type="line"/>
    </contour>
    <contour>
      <point x="26" y="283" type="line"/>
      <point x="26" y="225" type="line"/>
      <point x="441" y="345" type="line"/>
      <point x="441" y="403" type="line"/>
    </contour>
    <contour>
      <point x="26" y="433" type="line"/>
      <point x="26" y="375" type="line"/>
      <point x="441" y="495" type="line"/>
      <point x="441" y="553" type="line"/>
    </contour>
  </outline>
</glyph>
<glyph name="z.sc" format="2">
  <advance width="566"/>
  <anchor x="277" y="0" name="bottom"/>
  <anchor x="277" y="0" name="bottomC"/>
  <anchor x="519" y="0" name="ogonek"/>
  <anchor x="277" y="560" name="top"/>
  <outline>
    <contour>
      <point x="209" y="148" type="line"/>
      <point x="506" y="493" type="line"/>
      <point x="506" y="560" type="line"/>
      <point x="47" y="560" type="line"/>
      <point x="47" y="491" type="line"/>
      <point x="459" y="491" type="line"/>
      <point x="447" y="518" type="line"/>
      <point x="367" y="435" type="line"/>
      <point x="49" y="64" type="line"/>
      <point x="49" y="0" type="line"/>
      <point x="519" y="0" type="line"/>
      <point x="519" y="69" type="line"/>
      <point x="95" y="69" type="line"/>
      <point x="107" y="42" type="line"/>
    </contour>
  </outline>
</glyph>
<glyph name="zero.tosf.zero" format="2">
  <advance width="604"/>
  <outline>
    <contour>
      <point x="451" y="477" type="line"/>
      <point x="404" y="512" type="line"/>
      <point x="180" y="74" type="line"/>
      <point x="231" y="48" type="line"/>
    </contour>
    <component base="zero.tosf"/>
  </outline>
</glyph>
